<mxfile host="app.diagrams.net" modified="2021-11-18T08:11:17.029Z" agent="5.0 (Windows NT 10.0; WOW64) AppleWebKit/537.36 (KHTML, like Gecko) Chrome/95.0.4638.69 Safari/537.36" etag="JIa2ogYW1V-rmy5nP3uS" version="15.8.2" type="github">
  <diagram id="tm56WMw-zvt5S6-82xMY" name="Page-1">
    <mxGraphModel dx="1353" dy="834" grid="1" gridSize="10" guides="1" tooltips="1" connect="1" arrows="1" fold="1" page="1" pageScale="1" pageWidth="827" pageHeight="1169" math="0" shadow="0">
      <root>
        <mxCell id="0" />
        <mxCell id="1" parent="0" />
        <mxCell id="Ctpr0SHcvEs6AHWeeGjL-21" value="&lt;pre style=&quot;color: rgb(169 , 183 , 198) ; font-family: &amp;#34;jetbrains mono&amp;#34; , monospace ; font-size: 11.3pt&quot;&gt;客户订单列表/sale/customer/listPage&lt;/pre&gt;" style="rounded=0;whiteSpace=wrap;html=1;shadow=0;align=left;fillColor=#cce5ff;strokeColor=#36393d;" vertex="1" parent="1">
          <mxGeometry x="340" y="270" width="350" height="50" as="geometry" />
        </mxCell>
        <mxCell id="Ctpr0SHcvEs6AHWeeGjL-22" value="" style="rounded=0;orthogonalLoop=1;jettySize=auto;html=1;entryX=0;entryY=0.5;entryDx=0;entryDy=0;" edge="1" parent="1" source="Ctpr0SHcvEs6AHWeeGjL-20" target="Ctpr0SHcvEs6AHWeeGjL-21">
          <mxGeometry relative="1" as="geometry" />
        </mxCell>
        <mxCell id="Ctpr0SHcvEs6AHWeeGjL-23" style="rounded=0;orthogonalLoop=1;jettySize=auto;html=1;exitX=1;exitY=0.5;exitDx=0;exitDy=0;entryX=0;entryY=0.75;entryDx=0;entryDy=0;" edge="1" parent="1" source="Ctpr0SHcvEs6AHWeeGjL-20" target="Ctpr0SHcvEs6AHWeeGjL-24">
          <mxGeometry relative="1" as="geometry">
            <mxPoint x="330" y="450" as="targetPoint" />
          </mxGeometry>
        </mxCell>
        <mxCell id="Ctpr0SHcvEs6AHWeeGjL-25" style="edgeStyle=none;rounded=0;orthogonalLoop=1;jettySize=auto;html=1;exitX=1;exitY=0.5;exitDx=0;exitDy=0;" edge="1" parent="1" source="Ctpr0SHcvEs6AHWeeGjL-20">
          <mxGeometry relative="1" as="geometry">
            <mxPoint x="340" y="430" as="targetPoint" />
          </mxGeometry>
        </mxCell>
        <mxCell id="Ctpr0SHcvEs6AHWeeGjL-28" style="edgeStyle=none;rounded=0;orthogonalLoop=1;jettySize=auto;html=1;exitX=1;exitY=0.5;exitDx=0;exitDy=0;entryX=0;entryY=0.5;entryDx=0;entryDy=0;" edge="1" parent="1" source="Ctpr0SHcvEs6AHWeeGjL-20" target="Ctpr0SHcvEs6AHWeeGjL-27">
          <mxGeometry relative="1" as="geometry" />
        </mxCell>
        <mxCell id="Ctpr0SHcvEs6AHWeeGjL-29" style="edgeStyle=none;rounded=0;orthogonalLoop=1;jettySize=auto;html=1;exitX=1;exitY=0.75;exitDx=0;exitDy=0;" edge="1" parent="1" source="Ctpr0SHcvEs6AHWeeGjL-20">
          <mxGeometry relative="1" as="geometry">
            <mxPoint x="340" y="560" as="targetPoint" />
          </mxGeometry>
        </mxCell>
        <mxCell id="Ctpr0SHcvEs6AHWeeGjL-31" style="edgeStyle=none;rounded=0;orthogonalLoop=1;jettySize=auto;html=1;exitX=1;exitY=1;exitDx=0;exitDy=0;" edge="1" parent="1" source="Ctpr0SHcvEs6AHWeeGjL-20">
          <mxGeometry relative="1" as="geometry">
            <mxPoint x="340" y="650" as="targetPoint" />
          </mxGeometry>
        </mxCell>
        <mxCell id="Ctpr0SHcvEs6AHWeeGjL-33" style="edgeStyle=none;rounded=0;orthogonalLoop=1;jettySize=auto;html=1;exitX=0.75;exitY=1;exitDx=0;exitDy=0;" edge="1" parent="1" source="Ctpr0SHcvEs6AHWeeGjL-20">
          <mxGeometry relative="1" as="geometry">
            <mxPoint x="340" y="720" as="targetPoint" />
          </mxGeometry>
        </mxCell>
        <mxCell id="Ctpr0SHcvEs6AHWeeGjL-38" style="edgeStyle=none;rounded=0;orthogonalLoop=1;jettySize=auto;html=1;entryX=0;entryY=0.75;entryDx=0;entryDy=0;exitX=0.65;exitY=1.067;exitDx=0;exitDy=0;exitPerimeter=0;" edge="1" parent="1" source="Ctpr0SHcvEs6AHWeeGjL-20" target="Ctpr0SHcvEs6AHWeeGjL-35">
          <mxGeometry relative="1" as="geometry">
            <mxPoint x="160" y="510" as="sourcePoint" />
          </mxGeometry>
        </mxCell>
        <mxCell id="Ctpr0SHcvEs6AHWeeGjL-39" style="edgeStyle=none;rounded=0;orthogonalLoop=1;jettySize=auto;html=1;exitX=0.5;exitY=1;exitDx=0;exitDy=0;entryX=0;entryY=0.75;entryDx=0;entryDy=0;" edge="1" parent="1" source="Ctpr0SHcvEs6AHWeeGjL-20" target="Ctpr0SHcvEs6AHWeeGjL-36">
          <mxGeometry relative="1" as="geometry" />
        </mxCell>
        <mxCell id="Ctpr0SHcvEs6AHWeeGjL-40" style="edgeStyle=none;rounded=0;orthogonalLoop=1;jettySize=auto;html=1;exitX=0.5;exitY=1;exitDx=0;exitDy=0;entryX=0;entryY=0.5;entryDx=0;entryDy=0;" edge="1" parent="1" source="Ctpr0SHcvEs6AHWeeGjL-20" target="Ctpr0SHcvEs6AHWeeGjL-37">
          <mxGeometry relative="1" as="geometry" />
        </mxCell>
        <mxCell id="Ctpr0SHcvEs6AHWeeGjL-42" style="edgeStyle=none;rounded=0;orthogonalLoop=1;jettySize=auto;html=1;exitX=0.5;exitY=0;exitDx=0;exitDy=0;entryX=0;entryY=0.5;entryDx=0;entryDy=0;" edge="1" parent="1" source="Ctpr0SHcvEs6AHWeeGjL-20" target="Ctpr0SHcvEs6AHWeeGjL-43">
          <mxGeometry relative="1" as="geometry">
            <mxPoint x="160" y="190" as="targetPoint" />
          </mxGeometry>
        </mxCell>
        <mxCell id="Ctpr0SHcvEs6AHWeeGjL-20" value="ds-order" style="rounded=0;whiteSpace=wrap;html=1;fillColor=#CCFFFF;" vertex="1" parent="1">
          <mxGeometry x="100" y="420" width="120" height="60" as="geometry" />
        </mxCell>
        <mxCell id="Ctpr0SHcvEs6AHWeeGjL-24" value="&lt;pre style=&quot;color: rgb(169 , 183 , 198) ; font-family: &amp;#34;jetbrains mono&amp;#34; , monospace ; font-size: 11.3pt&quot;&gt;&lt;pre style=&quot;color: rgb(169 , 183 , 198) ; font-family: &amp;#34;jetbrains mono&amp;#34; , monospace ; font-size: 11.3pt&quot;&gt;客户售后详情页/customerRefundOrder/detail&lt;/pre&gt;&lt;/pre&gt;" style="rounded=0;whiteSpace=wrap;html=1;shadow=0;fillColor=#cce5ff;strokeColor=#36393d;" vertex="1" parent="1">
          <mxGeometry x="340" y="340" width="350" height="40" as="geometry" />
        </mxCell>
        <mxCell id="Ctpr0SHcvEs6AHWeeGjL-26" value="&lt;pre style=&quot;color: rgb(169 , 183 , 198) ; font-family: &amp;#34;jetbrains mono&amp;#34; , monospace ; font-size: 11.3pt&quot;&gt;上门取货/refund/homeDelivery&lt;/pre&gt;" style="rounded=0;whiteSpace=wrap;html=1;shadow=0;fillColor=#cce5ff;strokeColor=#36393d;" vertex="1" parent="1">
          <mxGeometry x="340" y="410" width="350" height="40" as="geometry" />
        </mxCell>
        <mxCell id="Ctpr0SHcvEs6AHWeeGjL-27" value="&lt;pre style=&quot;color: rgb(169 , 183 , 198) ; font-family: &amp;#34;jetbrains mono&amp;#34; , monospace ; font-size: 11.3pt&quot;&gt;顾客端订单详情页/sale/customer/detail&lt;/pre&gt;" style="rounded=0;whiteSpace=wrap;html=1;shadow=0;fillColor=#cce5ff;strokeColor=#36393d;" vertex="1" parent="1">
          <mxGeometry x="340" y="470" width="350" height="40" as="geometry" />
        </mxCell>
        <mxCell id="Ctpr0SHcvEs6AHWeeGjL-30" value="&lt;pre style=&quot;color: rgb(169 , 183 , 198) ; font-family: &amp;#34;jetbrains mono&amp;#34; , monospace ; font-size: 11.3pt&quot;&gt;&lt;pre style=&quot;color: rgb(169 , 183 , 198) ; font-family: &amp;#34;jetbrains mono&amp;#34; , monospace ; font-size: 11.3pt&quot;&gt;提交订单/v1/sale/submit&lt;/pre&gt;&lt;/pre&gt;" style="rounded=0;whiteSpace=wrap;html=1;shadow=0;fillColor=#cce5ff;strokeColor=#36393d;" vertex="1" parent="1">
          <mxGeometry x="340" y="545" width="350" height="40" as="geometry" />
        </mxCell>
        <mxCell id="Ctpr0SHcvEs6AHWeeGjL-32" value="&lt;pre style=&quot;color: rgb(169 , 183 , 198) ; font-family: &amp;#34;jetbrains mono&amp;#34; , monospace ; font-size: 11.3pt&quot;&gt;&lt;pre style=&quot;color: rgb(169 , 183 , 198) ; font-family: &amp;#34;jetbrains mono&amp;#34; , monospace ; font-size: 11.3pt&quot;&gt;推送订单中心&lt;/pre&gt;&lt;/pre&gt;" style="rounded=0;whiteSpace=wrap;html=1;shadow=0;fillColor=#cce5ff;strokeColor=#36393d;" vertex="1" parent="1">
          <mxGeometry x="340" y="630" width="350" height="40" as="geometry" />
        </mxCell>
        <mxCell id="Ctpr0SHcvEs6AHWeeGjL-34" value="&lt;pre style=&quot;color: rgb(169 , 183 , 198) ; font-family: &amp;#34;jetbrains mono&amp;#34; , monospace ; font-size: 11.3pt&quot;&gt;&lt;pre style=&quot;color: rgb(169 , 183 , 198) ; font-family: &amp;#34;jetbrains mono&amp;#34; , monospace ; font-size: 11.3pt&quot;&gt;服务预约确认订单页&lt;/pre&gt;&lt;/pre&gt;" style="rounded=0;whiteSpace=wrap;html=1;shadow=0;fillColor=#cce5ff;strokeColor=#36393d;" vertex="1" parent="1">
          <mxGeometry x="340" y="700" width="350" height="40" as="geometry" />
        </mxCell>
        <mxCell id="Ctpr0SHcvEs6AHWeeGjL-35" value="&lt;pre style=&quot;color: rgb(169 , 183 , 198) ; font-family: &amp;#34;jetbrains mono&amp;#34; , monospace ; font-size: 11.3pt&quot;&gt;&lt;pre style=&quot;color: rgb(169 , 183 , 198) ; font-family: &amp;#34;jetbrains mono&amp;#34; , monospace ; font-size: 11.3pt&quot;&gt;服务预约提交订单&lt;/pre&gt;&lt;/pre&gt;" style="rounded=0;whiteSpace=wrap;html=1;shadow=0;fillColor=#cce5ff;strokeColor=#36393d;" vertex="1" parent="1">
          <mxGeometry x="340" y="760" width="350" height="40" as="geometry" />
        </mxCell>
        <mxCell id="Ctpr0SHcvEs6AHWeeGjL-36" value="&lt;pre style=&quot;color: rgb(169 , 183 , 198) ; font-family: &amp;#34;jetbrains mono&amp;#34; , monospace ; font-size: 11.3pt&quot;&gt;&lt;pre style=&quot;color: rgb(169 , 183 , 198) ; font-family: &amp;#34;jetbrains mono&amp;#34; , monospace ; font-size: 11.3pt&quot;&gt;服务预约客户详情页/customer/mall/list/page&lt;/pre&gt;&lt;/pre&gt;" style="rounded=0;whiteSpace=wrap;html=1;shadow=0;fillColor=#cce5ff;strokeColor=#36393d;" vertex="1" parent="1">
          <mxGeometry x="340" y="820" width="350" height="40" as="geometry" />
        </mxCell>
        <mxCell id="Ctpr0SHcvEs6AHWeeGjL-37" value="&lt;pre style=&quot;color: rgb(169 , 183 , 198) ; font-family: &amp;#34;jetbrains mono&amp;#34; , monospace ; font-size: 11.3pt&quot;&gt;&lt;pre style=&quot;color: rgb(169 , 183 , 198) ; font-family: &amp;#34;jetbrains mono&amp;#34; , monospace ; font-size: 11.3pt&quot;&gt;服务预约订单列表/customer/mall/list/page&lt;/pre&gt;&lt;/pre&gt;" style="rounded=0;whiteSpace=wrap;html=1;shadow=0;fillColor=#cce5ff;strokeColor=#36393d;" vertex="1" parent="1">
          <mxGeometry x="340" y="880" width="350" height="40" as="geometry" />
        </mxCell>
        <mxCell id="Ctpr0SHcvEs6AHWeeGjL-41" value="" style="shape=image;verticalLabelPosition=bottom;labelBackgroundColor=#ffffff;verticalAlign=top;aspect=fixed;imageAspect=0;image=data:image/png,iVBORw0KGgoAAAANSUhEUgAAAhMAAAMNCAYAAAAiCPZ7AAAgAElEQVR4AeyceVcTyfu3n9fTPxY5OCoeRh2EMyoqA0pQyBFBFldAUHBcRlAQ4igoiyjIFrao6ICEjKOMy0i+b+vznOpOd5Im6S7oiBA/f3CSkEp19X1fXX1VdXX/v//7v/8D/xgDMkAGyAAZIANkYL0M/L/1/pC/I3RkgAyQATJABsiAYIAywZkZzkyRATJABsgAGXDEAGWCADkCiKMSjkrIABkgA2SAMkGZoEyQATJABsgAGXDEAGWCADkCiCMSjkjIABkgA2SAMkGZoEyQATJABsgAGXDEAGWCADkCiCMSjkjIABkgA2SAMkGZoEyQATJABsgAGXDEAGWCADkCiCMSjkjIABkgA2SAMkGZoEyQATJABsgAGXDEAGWCADkCiCMSjkjIABkgA2SAMkGZoEyQATJABsgAGXDEAGWCADkCiCMSjkjIABkgA2SAMkGZoEyQATJABsgAGXDEAGWCADkCiCMSjkjIABkgA2SAMkGZoEyQATJABsgAGXDEAGWCADkCiCMSjkjIABkgA2SAMkGZoEyQATJABsgAGXDEAGWCADkCiCMSjkjIABkgA2SAMkGZoEyQATJABsgAGXDEAGWCADkCiCMSjkjIABkgA2SAMkGZoEyQATJABsgAGXDEAGWCADkCiCMSjkjIABkgA2SAMkGZoEyQATJABsgAGXDEAGWCADkCiCMSjkjIABkgA2SAMkGZoEyQATJABsgAGXDEAGWCADkCiCMSjkjIABkgA2SAMkGZoEyQATJABsgAGXDEAGWCADkCiCMSjkjIABkgA2QgaWVCUXahov8rpnrOIVNRYp4wZcrwIPkxD5KtyMZWbPNmO76cxlBRUpCaloaUOH3OZttftufH7N++Rd5jysSxe5/gG6jHdpsDQlGycPT8LZwpzIp5shYNlinzLXZM2VWPP/2fcad8e/y2mcocvOnHi7//Z/zN3D8T97ffos3mOmXbI5svc/3r/ZyInCrKduRWe+Dxvsfk4meMeifQXJ2PjAjmFGUb9p1qR+f4ErwLyxgaH0HjqTykR5TJujhp5Csyd63usEDK1GOOhQw/5t/IfJbNqUxd5jLfqs3m7Vh9TgQbVvV/6+/MMVxrvnZXj8Ab+IjO6r3r7jvsYiiOd511X+ArvC/ewNN6HjkZYea/dZxYPyXEzIBDmTiI+skgBq4ejHvgKIp9GXOjEvE5++IUZucH4NoW/wAzl8nMKUaRqwxFrnI0DQfxvWVCtj0bLxPOc/qTux9jS//gz5sNOFFWhTM3vRgNfECre6fB0rZCD4YD/6Kn7QpK3bWobfPBG/CjuTDDKJNdNw3fq0FUqXkTudP+cneF8y5Tj5k5Mxvm79f7WTan66n/W7V5LW35Xsf7WtpoVdYcw7XmK6vyKcbevsfdymyDUavtxfrOLobq8T7mgUtl/RROnPeg+3UQY56KuLOwsbbD/1EIEslAUsqEouzDueEVTHSWIy1iFBsZOKsyYiR76vH3lwm9vXbt2WoyIfbH3bOCqe4aYyZCzFSUdX/BbM85deZBTBe7PF8w3XcJO0I5FCO2033/YcpTYUwjZ9fPwDd1B7lx8yxXjx5r8WrFRmQ5J+/tcrrWujeizTJtsjsRytTxvcpYxTDR+bLaR7sYxjred1Q9x3TAi8qdYYm22ga/o0gkmgELmWjGscsjGHzzCd6Xc7jTcAw/6Z36r7cwGAgaU236lJt49Y1cQ7aiQJEoI3ZGOzCuovDSUwzMfYL31Wu0NxYbJxB9h8XJ5UDjDMbfLqOn8ahxMtG/j3xVcn5HX+ADrhenxR0dWJWx6zgUJQP7yjvQpU6//4vh8VE0lUdPvytKOvaUtaFjzI+JhY8YmfSiZdU0fhr2ue/i3lgA3rcfMTrpxbWaw8YJVt8nu/ZoMYyfL1GPXJt34kjDE/T6ljG9tIKpuQXcb63F3lStg5LNqba9+PkSsSnrXoG36zRSdaaUNLg8HzHTXaMKoKLsxdmhIAZb8qNymNsyD99QM3aHfren4QV8k7exXzCXmmbUF46dXD16ebXtcfhRFOv4aPudmJyKGKmMqZeBPmFk/DnqT+5dtX96u+PxLMNhyf0V+B5fMC4fxeLNbt9l2bDjUEmrQXtgHi2NDzE4/wE9TSUovP4S43/5cbc2zzjuZeKjuAfg8w+gsqQDD30fMfnGj+579cjNjH3CjRdDLa/WA4zU04NR/eHQzd+iuNXqsOZHNoaxZEL59Q8MBpZw+XDoWFXsORQ5zW8YRN8LEZsFdDadxrmBILwdZUbbZeKsM8jXH1tQ4svE9Bt03v8dpe5qVN99AW/gPW6WaOsPlMw8FJRVwFXWiLYXQQzfb4RL/VwBV2EutomOXaKMgE89MKZf457nGkrdVahqncFEYBm3S3cYQGsHYhp+a/sbs4EVPG87GbdTFWX3X30N39x9HAmdBGNBblUmVmcaWUd6wT08WxLT7004KeLTNgvvkh9XCrYZbU4/0o7BpY94fPcqSsvOoOL3cYwsvcftsvA0fmpBB4aWltHdehknSqtw5o9pjAfe4YYrep2HXXu0GMbPl2i7TJtTCj0YC7xD59VzKC4pR+lFD3rerOBRQ566X7I5FdtTFOt8Zboe4vnbv3CjPBdpShqyT3owsOhHy7FMbVvKLzg/svoSmpq3kLCK7exrfAWftweX2ucw7l/B9JsF3LsSllFFsp7I/MZjwy4+oo5E5TS9sAvDS8shxmpQ3TaDCf9fqD8UW5DjtVmGQxmZsNt3WTbsONRkYhk9t+pQ2jyOifkF3G6sxRnPInwvPTgUkkiZ+GgysYTB3seorajEyUsP0TcfxFBrccwZy3gx1Hi2lomUrPzQJbbzuDEZRCyZSFQMY8lE2olH8AZmUPOzJhMyHGaceITRwEc8amvESXcNznnGMPgiWiZk4hx57PD9jysU8WXihQeH03TLPaSujRhpLTZOltoBZn/tXGrKzteFQ/roNzQi9Xa4o7albi8lAzv37Ma2lNgjC61N+WgQB/Mfx4xRjBlwRbEuY3fyLmh7D99wszoDo21zL84NBzHaVmK0WSvTYoygxTT+qUdfMX2/yhChLNc1NDWUYZcxOs/BhdEgxlpdRj1a/dYdmdq52ORLps07znvhe/MQR0PtEdvO/Pkgcn7+ydQe+7yr7bbIl5CNvae6Mej/jOHJJUz553HDnWPEJlICUo60YnB+HvVHUjRRjJCJX5rm4PN/wYDnMo4Xu1F+3YsxIb4nQuIbIRNW9Yj2arGOz4ZMfBKV08KOj/ANXUWWwYY2w2I+Bu3aLMOhjEzI7LvWFms27DjUZOIDWgrFgOQCPIEJnP5JgVLkwXjgKU6E+gmZ+KgyEVhA/cEUg9/c5r/ge+VBfgTjdjHUvrc+BkUZrZwmwbFkIlExVI/3wSZkZW5HRuYOZB2owrXx/zA91Iw9of2S4VDNxfhN7NMZSy3EVV+0TMjEWd93vv64IiFyH18mnjSEL2soGSgXawg8lcZBqR041h2HTBn1wHgSfefI8c7P8PVeXDXdLwNryuF2DAX8uHw43IGYf2dXxkomxDStiMVU1+moWBzv+gzf44uh6/0ZKO8NYrKzPKqMuR3655S0bchQO4ZdqOxdvVbDqj2iDi2G8fMl02ZRT8qRDgwHltHddhVlJUX4ZVd4pkVvq3i1E8TIsvHeK5lFqHv6HmMjfbhUdxO3xz5g9OktHApNQUfJRP4t9M3N4dKh1TKx87c6XGioQo4hvtpJd+JuaVTnLhYJp1jUo7fTig3Z+Ii6nORUzVdvEN57FSEuxEljO1z3PsL36PyqUXW8Nuv12HEoIxOy+27FhgyHmkz8g6sFmkx0BUZxKlOBUtCJ0cAznExT1Et24viyi48mE0MoDbEh8pLmasfj5+0oMA1I4sVQ58LuGAyXiy8TiYih2I443iMvLYv33rFunMxZPWsVj0NFSUXpwyB8D2uNQZe47HHmSVgmdH7s4qzvO18pE6tOeOrJKeLW0HgHklXHoYNlV8a8Lf1g8fVeWrNMiHUVh/9Ygm+yzXJBnn2Z+KMQMcNwWu3ITkXFTd2PUJvjldFjor+m/3oBt4b/xqQ/ev2J+S6SePHX6zHH0Fw+Xnsi2yzqEuXE7Zpd4+8xHQjCt/QZQ086UJgdPRNkl1O9XfFeRSdV1PEO3ieN2KNLQNp+1Ax+wkiHW7tMFjGjEFmP+TJH5Hf6+2ixk7tcIn5rx49MfBKRUz1f5hOGuibJdFxYtVmvx3svmlU9TvqrjEzI7LsWw/gDjHjtieRQTia0Y9AuPppMaAKi72usV6sY6uXNx5T+f/OrLsGxZiYSEUOxPTVez9tRVHAM+QWFyN27E2kmObLjUMwMlnUH4XtQY/RjirIDlRFrJvR82cXZHAN+/jGlIv7MxEbKRMyZiQvqSWUtYCqpxbg2F0T/FYtbVWXKWNzNITW6ErMXvUFMmWYmUtLSkZ6WGhox5+Hi2Aq8Q51wu4qRr3YMJah/ts6ZCYt8ybTZHOfUzD3ILWlB18sgJjrcxuUHUc65TJTixnwQ7ZXRMx/plc/gm+9GoVhzY7UAM+ISk7nd4nNx1xdjQeFa6pHhR99erPgoSmJyaowIu6+EuBAnjdBf3m5jJKnmwoJnvR4rDtV4eb7C1xs+3vTfTXsqjBONvt/iNda+699bsSHDoZxMaMeX1yY+0jJhEcPwfsUfYOhlxKuVTESWW28MRR3mwUNkvVob5Dg8Jma6Bi9jp36ZQ8nDpfEYMxM2cTZvn58pE0bHYYY1npUryq+o8wYx0HzI+K0ZJLsy6rZirpkIryjW61TENfif46+ZSHU9xHhgDudzokfS+u/Fq0wZYe2lD1cw+6AmquPW64l13fdsrDUTz7U7W8TvhOWX937F1P0z6olZSalAqz+IzurwYkv1xBfj+RZ27ZHJl0ybdxxww/VbTtQ0esGdD1EdjrYv9nlXy8XJl6KU4PqbIPqb8434itFhbstrdc1GgSoT8W/pnH5QrbZR/OZgwwge/BG+v17vzPW1BaJMvFtM9Xr0vNqxYRefROZUXKueeXzBmJ0T09JZB0pwNC/6AXF2bVbzbsGh2Pe8awvwTbcjLzS6VVKOomk6+k4au33XY2h3vNtxKCMTYlsy8ZGVCbsYiu3ZHYPh/Y9/mSNRMTQf7/q29VdZDnfVjmF6aQE3Kg4ja9deHDrfjYE3YZkQ9cnEWd8uX39MidDz7nBmQjwb4D9Mjz1AuVvc3VGB4/k/R4mFOIlalVEPjMk5dJjv5igzL/qzvjtAHOzHu5YxazFqlSmjB0bcJTD72ov60+7QKu0S/LJDkxSxIv2pWGnfehkny6pR1TqLiaVFNEXezXG0A0/1uzlK9bs5/sGtUu1uDkXJwdnhr5ieHMSFqgoUuy/goucZ+mdWz0yINlm1x9y5xJI/mTbvrB5RF0LerqvFMZcbrpp2PJwLYuhG9G1udjkV7RWxjnf3jfgu/+YCZhYX0d5Sp97JUtHyDM/8Kxi8UWTMgmQUiYdWiTsatIdW1bTNYiLwN65H3O2ScfxPDC+9g+daHUpKq1HdOgPv0jzq88PXj2XqkWHDLj6JzGm6eGDXUgBdLXUoOVmBsvrH6H/7GV21e4zjS6bN6TYcilyl/noDff5P6Ou4ipPuWpztfI0p/0ucz9Vm0UQZu30XZbS8Wx/vdhzKyoRUfMStoaF1Fnr7zK8yMdR/E+8YFKK3+5D+wDTtbo6xB1dWPUAtUTE0H+96+/RXWQ6V1IM482gJM+KSZmAFY73XcXUwWiZk4qxvl6+UCaNz0mEwwxrr5KSXTd1/EbdH3sEbuu5vvt4vylmVUbfVewW/1T8znjNxtyl8a5++HTHCVJ8zsRj7ORPKtgq0za/gwcX4j7GVKWNsLyMfZzyvMLKwoi528gW0FebiezFdqz4DYCIA78K/eD4R6zkT27BXfYbEkvGciWum50yk5VSj5ck8Rhe+qM/yaKsrRMWD2DKhWLRHJl9SbU7JRlHzM/S9/IiZpRVMzi3iYWcD8mLcl2+VUy1GNvlK24uipj70zCxjyv8FE7MzaG0qw+6IxXKCu32nOrTHaYceuX218oDxPAQ9FzmnO+HxvlNzIR65fblsf9TsilQ9MvxIxCdROVXbrO7Xe0wtfsLY1DRu1UUfFzI8i3rsOBQn1OySVnSMaY8tHx59ijpX9DMtFIl9148dKzbsOJSVCan4yMiERN71/Yp3DFqtLRDrDfRHuycqhubjXW9f5KsshyL32/ceQl5eNrYpWagyyYRMnCO3y/c/rlDEnJnYSCDUA6O/3vFjYDNOD2LK70VlxGOUzfshU8b8G37+MQ6OrcjGVmzzZjueGMPw8a0oP6N2KAj9EuFmyxXbE87VZozF5pCJiMWD6wmSGBmcevQFM32XjNtZzfXIlDH/hp83N7yJys9WZGMrtjlR+UpUPYzh/+Gn/S7jcoyrthsD/s/oqNy1arY6UTFnPcnbp66SiYZbA9jIv7aJFfhmX6DpZv+Gbncj95Hb2limGG/GmwzIMfDH6JfQZdwgZt5+xLPRKTSvoS+mHCSvHKw1t6tkYq0VsDxhIgNkgAyQATLwYzNAmQitQueB8GMfCMw/808GyAAZWD8DlAnKBK+PkgEyQAbIABlwxABlggA5Aogmv36TZ+wYOzJABpKFAcoEZYIyQQbIABkgA2TAEQOUCQLkCKBksWruB0eIZIAMkIH1M0CZoExQJsgAGSADZIAMOGKAMkGAHAFEk1+/yTN2jB0ZIAPJwgBlgjJBmSADZIAMkAEy4IgBygQBcgRQslg194MjRDJABsjA+hmgTFAmKBNkgAyQATJABhwxQJkgQI4Aosmv3+QZO8aODJCBZGGAMkGZoEyQATJABsgAGXDEAGWCADkCKFmsmvvBESIZIANkYP0MUCYoE5QJMkAGyAAZIAOOGKBMECBHANHk12/yjB1jRwbIQLIwQJmgTFAmyAAZIANkgAw4YoAyQYAcAZQsVs394AiRDJABMrB+BigTlAnKBBkgA2SADJABRwxQJgiQI4Bo8us3ecaOsSMDZCBZGKBMUCYoE2SADJABMkAGHDFAmSBAjgBKFqvmfnCESAbIABlYPwOUCcoEZYIMkAEyQAbIgCMGKBMEyBFANPn1mzxjx9iRATKQLAxQJigTlAkyQAbIABkgA44YoEwQIEcAJYtVcz84QiQDZIAMrJ8BygRlgjJBBsgAGSADZMARA5QJAuQIIJr8+k2esWPsyAAZSBYGKBOUCcoEGSADZIAMkAFHDFAmCJAjgJLFqrkfHCGSATJABtbPAGWCMkGZIANkgAyQATLgiAHKBAFyBBBNfv0mz9gxdmSADCQLA5QJygRlggyQATJABsiAIwYoEwTIEUDJYtXcD44QyQAZIAPrZ4AyQZmgTJABMkAGyAAZcMQAZYIAOQKIJr9+k2fsGDsyQAaShQHKBGWCMkEGyAAZIANkwBEDlAkC5AigZLFq7gdHiGSADJCB9TNAmaBMUCbIABkgA2SADDhigDJBgBwBRJNfv8kzdowdGSADycIAZYIyQZkgA2SADJABMuCIAcoEAXIEULJYNfeDI0QyQAbIwPoZoExQJigTZIAMkAEyQAYcMUCZIECOAKLJr9/kGTvGjgyQgWRhgDJBmaBMkAEyQAbIABlwxABlggA5AihZrJr7wREiGSADZGD9DFAmKBOUCTJABsgAGSADjhigTBAgRwDR5Ndv8owdY0cGyECyMECZoExQJsgAGSADZIAMOGKAMkGAHAGULFbN/eAIkQyQATKwfgYoE5QJygQZIANkgAyQAUcMUCYIkCOAaPLrN3nGjrEjA2QgWRigTFAmKBNkgAyQATJABhwxQJkgQI4AShar5n5whEgGyAAZWD8DlAnKBGWCDJABMkAGyIAjBigTBMgRQDT59Zs8Y8fYkQEykCwMUCYoE5QJMkAGyAAZIAOOGKBMECBHACWLVXM/OEIkA2SADKyfAcoEZYIyQQbIABkgA2TAEQOUCQLkCCCa/PpNnrFj7MgAGUgWBigTlAnKBBkgA2SADJABRwxQJgiQI4CSxaq5HxwhkgEyQAbWzwBlgjJBmSADZIAMkAEy4IgBygQBcgQQTX79Js/YMXZkgAwkCwOUCcoEZYIMkAEyQAbIgCMGKBMEyBFAyWLV3A+OEMkAGSAD62eAMkGZoEyQATJABsgAGXDEAGWCADkCiCa/fpNn7Bg7MkAGkoUBygRlgjJBBsgAGSADZMARA5QJAuQIoGSxau4HR4hkgAyQgfUzQJmgTFAmyAAZIANkgAw4YoAyQYAcAUSTX7/JM3aMHRkgA8nCAGWCMkGZIANkgAyQATLgiAHKBAFyBFCyWDX3gyNEMkAGyMD6GUhamVCUXajo/4qpnnPIVJSYJ0yZMoRr/XBt5diRjR8z71uZWau2byWeFSUFqWlpSInTb1vtJ7/7fsdtTJk4du8TfAP12G6TTEXJwtHzt3CmMCvmyVokVqbMtwBA2VWPP/2fcad8e/y2mcocvOnHi7//Z/zN3D8T97ffos3mOmXbI5svc/3r/ZyInCrKduRWe+Dxvsfk4meMeifQXJ2PjAjmFGUb9p1qR+f4ErwLyxgaH0HjqTykR5TJujhp5Csyd63usEDK1GOOhQw/5t8k+nMi4pzoNlnVJzjUc+ALfIXX9wJtDS7sTAnnwur35u+UncWo653H+OKKWq8v8Bxl6eury1x3vM+KsgOVA0F4750yjn1FScPPpXdwb0xw+C+Gxp/jcul+pEVwGK8+q//H2pZVeSffyfDspD2JZHV39Qi8gY/orN5r5EDsu2x/6CRO/O36ZcShTBxE/WQQA1cPRiU9MiGKYl8msnyi3mdfnMLs/ABc2+J3PuYymTnFKHKVochVjqbhIL63TMi2Z+NlwnlOf3L3Y2zpH/x5swEnyqpw5qYXo4EPaHXvNFjaVujBcOBf9LRdQam7FrVtPngDfjQXZhhlsuum4Xs1iCo1byJ32l/urnDeZeoxc2dmw/z9Rnz+XsfOevdN5XDMA5eagwqcah7CkP8/9NTnGflaS90Hri/C9+Ipakv1vB7BrnWKiex2Y51QUw/dxpOlj+i9ewUn3TWoufsC3qV51OenrWu/9LbE2pb+XaJfZXh20p5EsppV+RRjb9/jbmV2VHxl+8NEx471yQlGUsqEouzDueEVTHSWxx09WJURI9lTj7+/TOgQ27Vnq8mE2B93zwqmumuMmQgxU1HW/QWzPefUmQcx1enyfMF03yXsCI0AxejndN9/mPJUGFOg2fUz8E3dQW6cUaJsPXqsxasVG5HlvvX7RHbQ37qton4zh4qSjqKOf+CbaUdenPzEa5eYDXD3iGOwKuqEEq98ov4f64R66OYSfBN/4BeDw19RNxHE0M0iR22Lta1E7UdkPbI8O2nPRrJq1x9G7jvfy4lAIuJkIRPNOHZ5BINvPsH7cg53Go7hJ/1g+vUWBgNBY0pTn9oUr76Ra8hWFCgSZcQOaB3QVRReeoqBuU/wvnqN9sZi4wSi76Q4KRxonMH422X0NB41Tib695GvSs7v6At8wPXi+CMHqzJ2sCpKBvaVd6BLnX7/F8Pjo2gqj55+Fx3pnrI2dIz5MbHwESOTXrSsmsZPwz73XdwbC8D79iNGJ724VnPYOMHq+2TXHi2G8fMl6pFr804caXiCXt8yppdWMDW3gPuttdibqo3yZXOqbS9+vkRsyrpX4O06jVSdKSUNLs9HzHTXqAKoKHtxdiiIwZb8qA47t2UevqFm7A79bk/DC/gmb2O/YC41zagvHDu5evTyatvj8COT05L7K/A9vmBciomVO0VJTJztcqqk1aA9MI+WxocYnP+AnqYSFF5/ifG//Lhbm2ccQ2K/VJ7VS06fMDL+HPUn90bFUnEPwOcfQGVJBx76PmLyjR/d9+qRmxmeATLLhIjlznMT8C0NoiQ0o2C3LSUlDemZ25GRuQuVvUHMPDiLDPWz+N82o00ycZY7Lnbh8OVB9L38CO/ca9y96EJ1f/gyh+h3Sh+uwNddExGvFJR2BzH7sDb8P4n4iHULVttS2UtQLuR4dt4e2T5ByKFdX5d6ejDqnDJ087eoY1/fp1jHlP4dXzdOHsyxji8T02/Qef93lLqrUS2m9QLvcbNEW3+gZOahoKwCrrJGtL0IYvh+I1zq5wq4CnOxTXTsEmVEY9QDfvo17nmuodRdharWGUwElnG7dEcUSALG39r+xmxgBc/bThqdinmHxOf9V1/DN3cfR0InwbWWsYM1veAeni2J6fcmnBTxaZuFd8mPKwXbjDanH2nH4NJHPL57FaVlZ1Dx+zhGlt7jdll4Gj+1oANDS8vobr2ME6VVOPPHNMYD73DDFb3Ow649Wgzj50vsv0ybUwo9GAu8Q+fVcyguKUfpRQ963qzgUYM2TS2bU7E9u3xluh7i+du/cKM8F2lKGrJPejCw6EfLsUw1horyC86PrL6EpuY2JKxiO/saX8Hn7cGl9jmM+1cw/WYB966EZVS2nkhG4vEjk1OZk1yi4myXU00mltFzqw6lzeOYmF/A7cZanPEswvfSg0MhIUsv7MLw0nKI5xpUt81gwv8X6g+FZVyTiSUM9j5GbUUlTl56iL75IIZai43Zv1gyceD3Be1YlNyWknUZD+MNVCLWTMjEObpvWd2PiZxnlvZiLLCMntbL6iWMc55B9HojZSINZd1B+B7UGMe2+N3JB0H4us8a/ZBMfOy2JepNVC5keE5Ee2T7BJm+LiUrP3SZ8jxuTIqZH8pEZB43+/v4MvHCg8NpoRGpckhdGzHSWhx1QMlMbdmVUQ94XxcO6aPf0IjU2+GO2pYIpJKSgZ17dmObxXVTRclHgwDxj2PGqMGcBLsydifvgrb38A03qzMwaruUvTg3HMRoW4nRZq1MizGCFtP4px59xfT9KqMDynJdQ1NDGXYZo/McXBgNYqzVZdSj1W992UWNoU2+ZE+uPhUAACAASURBVNq847wXvjcPcTTUHrHtzJ8PIufnn0ztkVszYZUvIRt7T3Vj0P8Zw5NLmPLP44Y7x4hNpASkHGnF4Pw86o+kaKIYIRO/NM3B5/+CAc9lHC92o/y6F2NCfE+ExDdCSqzq0RmxYkMmpzInuUTF2S6nmkx8QEuhkPsL8AQmcPonBUqRB+OBpzgROuYKOz7CN3QVWQaH2mxO5PGuniwDC6g/mGKwkNv8F3yvPMgP/U7lcLAJWepMQhb2HL+BB2+CeN5WYuTVbltKajb2FxxDfkEJ6p8FMTNwHfnqZ/G/A8ZiTpk4a32LB/lG33IQ9d4gIverSN338EyXklqEZt86ZcImPnbbEgzaxUftD8QsiM22ZHhOVHvUNtmsjZPt67S6tIEEZeL7zTLo/KzlNb5MPGkIX9ZQMlAu1hB4Ko2ORAYgmTLqAf8k+s6R452f4eu9uGq6X2bHUg63Yyjgx+XD4U7P/Du7MlYyIaaWRSymuk5HxeJ412f4Hl8MXe/PQHlvEJOd5VFlzO3QP6ekbQtN5Yamdk13kVi1R9ShxTB+vmTaLOpJOdKB4cAyutuuoqykCL/sCs+06G0Vr3aCGFk23nslswh1T99jbKQPl+pu4vbYB4w+vYVDoWnzKJnIv4W+uTlcOrRaJnb+VocLDVXIMcRXOxFO3C1VYy9bj97OeGyoMZTIqcxJLhFxlsmpJhP/4GqBJhNdgVGcylSgFHRiNPAMJ9MU9fKXYNV7ryLicsJ2uO59hO/ReWPWQZOJIZSG4izileZqx+Pn7SgIyb3gMOqSZ+Arng/cwEEjp9pxYbctUbcd8zJxtj8uMlcdp+IS1Jkn65WJ+PFRFJltycVHJhf2PCeuPVq+5AYYdn2dVhdlQs/fVnqNLxMRt4bGO7BlTip2ZdQDPmJbInjq/3ovrVkmxPXNw38swTfZZrkgz75M/JkAMcNwWu18w7eOmdscr4wZjPRfL+DW8N+Y9EevPzHfRRIv/np95hiay8drjznOopy4XbNr/D2mA0H4lj5j6EkHCrPD18XFNu1yqrcr3qs4ERZ1vIP3SSP26BKQth81g58w0uHWLpNFzChE1mO+zBH5nf4+WuzkLpeI31rxEy+G+jb1V5mTXCLiHK89kTmVkwmN50gJ0N/7Io5B7QSmCYi+r+ZXddvP21FUcAyFV72Y9ntRkRVmR2+zXn/ka+S2RL1mhs3bkonzeo4L8yJEMYMmfZkjJGjmtmr7s7rfWL2txOVC22b8/lDPRfQtsNG3xeplIvOkv1+dL2uZkO3rtHZTJmIxtNn/tzlkIubMxAX1pLKWACqpxbg2F0T/FYtbVWXKWNzNITUiFLMXvUFMmWYmUtLSkZ6WGhox5+Hi2Aq8Q51wu4pDU7mhqd31zExECJm5I5ZpsznOqZl7kFvSgq6XQUx0uI1palHOuUyU4sZ8EO2V0TMf6ZXP4JvvRqFYc2O1ADPiEpO53eJzcdcXYxHkWuqx4keNoU1O1W17vsLXG2ZX/920pyLmLNV64yyTUzmZCI2Gu69EXE4QlxSOIT9vt3GpUFomQhwq29y4NRfE4O/hxdJ6LLw229IYiy/0snG2lwmZ0fkaFmBayoTMthKXCzWGFn3dmmZKpPIVXyYURb6v03JPmRBx2Gp/DmXiV9R5gxhoPhR3xxXFuox6wMdcM1G2qk71GvzP8ddMpLoeYjwwh/M54dGQOSEyZcRoRKzgnn0QXsEdWU+sa9VnY62ZeK7d2SJ+Kyy/vPcrpu6fUU/MSkoFWv1BdFaHF1uqJ74Yz7ewa49dpym2L9PmHQfccP2WY0xtq7+78wG+wcvYGbGOwi6neqzi5UtRSnD9TRD9zfnhk5WSgtyW1+qajQJVJuLfGjr9oFpto5hJONgwggd/VBhPOdUva+jXxUWZeLeY6vXo7bVjQ42hRU5FPXnXFuCbbkeefvdCylE0TUfflZKoONvlVEYmRJvFdfqZxxeMmUBFSUXWgRIczQs/jG7NMqGkIE/ceTM/iJLt4eNRZluiTWYh1nOkv8rEWea4OCYu50TcHWReMyG2p90aegv7jDUleeqtocM3C40+Si4+9tuSiY/MtkS77XiW2XeZ9ohtWfUJa+nrtLrsZMK6fxZ18G/jY+BQJsSzAf7D9NgDlLvF3R0VOJ7/c1QixUnUqox6wE/OocN8N0eZedGf9d0c4oR7vGsZsxajVpkyOoTiLoHZ117Un3aHVhiX4JcdWqcoVtE/FavfxQrwsmpUtc5iYmkRTZF3cxztwFP9bo5S/W6Of3CrVLubQ1FycHb4K6YnB3GhqgLF7gu46HmG/pnYz7ewao9MpynT5p3VI+pCyNt1tTjmcsNV046Hc0EM3YheVW2XU61DiJ8vkYf8mwuYWVxEe0udeidLRcszPPOvYPBGkTELklEkHlol7jLQHlpV0zaLicDfuB5xt0vG8T8xvPQOnmt1KCmtRnXrzKoHCsnUI8NGuk1OxX6n/noDff5P6Ou4ipPuWpztfI0p/0ucz9VmpESZRMXZLqeyMpEuHg62FEBXSx1KTlagrP4x+t9+RlftHuNYljmBreJwt3gKbfhuILHvMtvS+LGemZCJ86r2xJhxzCztx7hYJyTuqHLX4JxnBIMRCzDVnOa3qndmPbrTpB7v1Xd8qxiTiY/MtmTiI7MtGZ4T1R4tX/H7eZm+Tgjs7kP6w8m0uznGHlyJ+RA6sT2r/lB8z7+Nj4EjmRAJS91/EbdH3sEbuu5vvt5vV0Y94Huv4Lf6Z8ZzJu42hW/t06EQI0z1OROLsZ8zoWyrQNv8Ch5cjH4Eq/578SpTRi+vZOTjjOcVRhb0R/lqq+LVevTnTEwE1MfrPp+I9ZyJbdirPkNiyXjOxDXTcybScqrR8mQeowtf1Gd5tNUVouJBbJmwao9MpymmmNVnCVi1OSUbRc3P1HvuZ5ZWMDm3iIedDciLeJaAHh+7vNvmK20vipr60DOzjCn/F0zMzqC1qQy7Ixb4idHpvlMd2uO0Q4/cvlp5wHiGg56LnNOd8HjfhR51PILLZdGPOpaqR4YfxT6nohPPLmlFh/ro5WUMjz5Fncv0zIYExdkup7IyocZHjeF7TC1+wtjUNG7VRR+DMiew1RxmwOVZhu9VNwpCj8GW2ZaWV2uZkInz6vasrlM8CO1I41P0v/qIydfzuNfgxtlVj9NOx96yuxHPlRGMiVuawzMuMvGR29Y27EtALmT6ukS1R6ZPsOvrrNZniHUakY/HV/mw6J/19vB1Y4UipkxsZBLUA76/3pimXu+2M04PYsrvRWXEY5TNdcmUMf+GnzcWyO8Vb7LxY+T5e/G10dslz+R5o5nbHDIRsXhwPQEQVnvq0RfM9F0ybmc11yNTxvwbfv4xDkiy8WPk+Uc5nskzef4erK+SiYZbA9jIv7aJFfhmX6DpZv+Gbncj95Hb2limGG/Gmwz8mAx8j5Mot6nJ2yqZYGBotWSADJABMkAGyMBaGKBMcOUvVz6TATJABsgAGXDEAGWCADkCaC3myrIc6ZABMkAGkpMBygRlgjJBBsgAGSADZMARA5QJAuQIII4yknOUwbwyr2SADKyFAcoEZYIyQQbIABkgA2TAEQOUCQLkCKC1mCvLcqRDBsgAGUhOBigTlAnKBBkgA2SADJABRwxQJgiQI4A4ykjOUQbzyrySATKwFgYoE5QJygQZIANkgAyQAUcMUCYIkCOA1mKuLMuRDhkgA2QgORmgTFAmKBNkgAyQATJABhwxQJkgQI4A4igjOUcZzCvzSgbIwFoYoExQJigTZIAMkAEyQAYcMUCZIECOAFqLubIsRzpkgAyQgeRkgDJBmaBMkAEyQAbIABlwxABlggA5AoijjOQcZTCvzCsZIANrYYAyQZmgTJABMkAGyAAZcMQAZYIAOQJoLebKshzpkAEyQAaSkwHKBGWCMkEGyAAZIANkwBEDlAkC5AggjjKSc5TBvDKvZIAMrIUBygRlgjJBBsgAGSADZMARA5QJAuQIoLWYK8typEMGyAAZSE4GKBOUCcoEGSADZIAMkAFHDFAmCJAjgDjKSM5RBvPKvJIBMrAWBigTlAnKBBkgA2SADJABRwxQJgiQI4DWYq4sy5EOGSADZCA5GaBMUCYoE2SADJABMkAGHDFAmSBAjgDiKCM5RxnMK/NKBsjAWhigTFAmKBNkgAyQATJABhwxQJkgQI4AWou5sixHOmSADJCB5GSAMkGZoEyQATJABsgAGXDEAGWCADkCiKOM5BxlMK/MKxkgA2thgDJBmaBMkAEyQAbIABlwxABlggA5Amgt5sqyHOmQATJABpKTAcoEZYIyQQbIABkgA2TAEQOUCQLkCCCOMpJzlMG8Mq9kgAyshQHKBGWCMkEGyAAZIANkwBEDlAkC5AigtZgry3KkQwbIABlITgYoE5QJygQZIANkgAyQAUcMUCYIkCOAOMpIzlEG88q8kgEysBYGKBOUCcoEGSADZIAMkAFHDFAmCJAjgNZirizLkQ4ZIANkIDkZoExQJigTZIAMkAEyQAYcMUCZIECOAOIoIzlHGcwr80oGyMBaGKBMUCYoE2SADJABMkAGHDFAmSBAjgBai7myLEc6ZIAMkIHkZIAyQZmgTJABMkAGyAAZcMQAZYIAOQKIo4zkHGUwr8wrGSADa2GAMkGZoEyQATJABsgAGXDEAGWCADkCaC3myrIc6ZABMkAGkpMBygRlgjJBBsgAGSADZMARA5QJAuQIII4yknOUwbwyr2SADKyFAcoEZYIyQQbIABkgA2TAEQOUCQLkCKC1mCvLcqRDBsgAGUhOBigTlAnKBBkgA2SADJABRwxQJgiQI4A4ykjOUQbzyrySATKwFgYoE5QJygQZIANkgAyQAUcMUCYIkCOA1mKuLMuRDhkgA2QgORmgTFAmKBNkgAyQATJABhwxQJkgQI4A4igjOUcZzCvzSgbIwFoYoExQJigTZIAMkAEyQAYcMUCZIECOAFqLubIsRzpkgAyQgeRkgDJBmaBMkAEyQAbIABlwxABlggA5AoijjOQcZTCvzCsZIANrYYAyQZmgTJABMkAGyAAZcMQAZYIAOQJoLebKshzpkAEyQAaSkwHKBGWCMkEGyAAZIANkwBEDlAkC5AggjjKSc5TBvDKvZIAMrIUBygRlgjJBBsgAGSADZMARA5QJAuQIoLWYK8typEMGyAAZSE4GKBOUCcoEGSADZIAMkAFHDFAmCJAjgDjKSM5RBvPKvJIBMrAWBigTlAnKBBkgA2SADJABRwwkrUwoyi5U9H/FVM85ZCpKzCDJlFmLmbFs8pj8j8zGj7zvVsewoqQgNS0NKXH6E6vf8rvk6RuYy9i5jCkTx+59gm+gHtttDhpFycLR87dwpjAr5slaBF2mzLdIjrKrHn/6P+NO+fb4bTOVOXjTjxd//8/4m7l/Ju5vv0WbzXXKtkc2X+b61/s5ETlVlO3IrfbA432PycXPGPVOoLk6HxkRzCnKNuw71Y7O8SV4F5YxND6CxlN5SI8ok3Vx0shXZO5a3WGBlKnHHAsZfsy/WetnZWcx6nrnMb64ou6DL/AcZenhdq+1PpnyirIDlQNBeO+dist2rH3faMbs9kW0R8/3zNtlDA52o+rIzrj7FKs+2eNL/+3u6hF4Ax/RWb13TdvRf8/X2CchxiU54uJQJg6ifjKIgasH4x5cimJf5lvAlH1xCrPzA3Bti985m8tk5hSjyFWGIlc5moaD+N4yIdueje7oE5HTn9z9GFv6B3/ebMCJsiqcuenFaOADWt3hE8K2Qg+GA/+ip+0KSt21qG3zwRvwo7kww+Atu24avleDqFLzJnKn/eXuCuddph4zg2Y2zN8n4vOB64vwvXiK2lK93UewKyXc7kRsw1yHjEzE2veNZszcbvNntT1jHrhcZTh2qg6Xe5cwszCJM/vk4yd7fOnbzqp8irG373G3MtvgT/+Or8lxQmQe15/HpJQJRdmHc8MrmOgsR1rEKDYSFKsyYiR76vH3lwm9vXbt2eiO3qlMiP1x96xgqrvGmIkQMxVl3V8w23NOnXkQU8ouzxdM913CjlAOxYzI6b7/MOWpMKaas+tn4Ju6g9y4eZarR4+1eLViI7Kck/eKkgZ3j2CsakNPTHYyEW/fN5oxu9ia26OkHUeLL4jBa0fWHE+748uuLfx+/Scgxi55YmchE804dnkEg28+wftyDncajuEnvVP/9RYGA0FjmlGfbhSvvpFryFYUKBJlBEhap3AVhZeeYmDuE7yvXqO9sdg4geiwiZPLgcYZjL9dRk/jUeNkon8f+ark/I6+wAdcL06L27FYlbHrXBQlA/vKO9ClTr//i+HxUTSVR0+/K0o69pS1oWPMj4mFjxiZ9KJl1TR+Gva57+LeWADetx8xOunFtZrDxglW3ye79mgxjJ8vUY9cm3fiSMMT9PqWMb20gqm5BdxvrcXeVG20J5tTbXvx8yViU9a9Am/XaaTqTClpcHk+Yqa7RhVARdmLs0NBDLbkR+Uwt2UevqFm7A79bk/DC/gmb2O/YC41zagvHDu5evTyatvj8KO4B+DzD6CypAMPfR8x+caP7nv1yM0Mj4bFvqlsqJdvPmFk/DnqT+412qWkpCE9czsyMnehsjeImQdnkaF+Fv/bZpQrub8C3+MLxiWdWAzI5X0XDl8eRN/Lj/DOvcbdiy5U98e/zBHvuJDblvVxoaTVoD0wj5bGhxic/4CephIUXn+J8b/8uFubZxzTdjEUOdLaE74Uq8vZ7J9Va6pHzbfN4CH19GBUXzd087coJpXMWnQsrsBTG325N+P0U0wvPsPJEB8y+2XHmJJRiTvzQfRfiZ4NVmfoFgZRkhFmMZJpvk+ek/ZmzWV8mZh+g877v6PUXY3quy/gDbzHzRJt/YGSmYeCsgq4yhrR9iKI4fuNcKmfK+AqzMU20bFLlBFBUTuF6de457mGUncVqlpnMBFYxu3SHdEHrJKG39r+xmxgBc/bThqdbqzA7r/6Gr65+zgSOgmutUysjjuyjvSCe3i2JKbfm3BSxKdtFt4lP64UbDPanH6kHYNLH/H47lWUlp1Bxe/jGFl6j9tl4Wn81IIODC0to7v1Mk6UVuHMH9MYD7zDDVf0Og+79mgxjJ8v0XaZNqcUejAWeIfOq+dQXFKO0ose9LxZwaOGPHW/ZHMqtic6d6t8Zboe4vnbv3CjPBdpShqyT3owsOhHy7FMbVvKLzg/svoSmprbkLCK7exrfAWftweX2ucw7l/B9JsF3LsSllFFsp7I/MbjR+volzDY+xi1FZU4eekh+uaDGGotNmbA0gu7MLy0HGKjBtVtM5jw/4X6Q5rYKlmX8TCeiEesmZCWCePYWX2cin3KLO3FWGAZPa2XcdJdg3OeQfR648tEvH1PBGOaTCyj51YdSpvHMTG/gNuNtTjjWYTvpQeHQoJoF0OxX2aZEP87+SAIX/dZo2+QqUf8zu74SsnKD10+O48bk0GskgnlJ5T3fsX0o/PGQEDwXyzkuPeCsQBcpj12jAkhKe5ahs97GzmGiGej+ukKvPerDPkU+8U/xmAjGYgvEy88OJwWGpEqh9S1ESOtxVGAykx325VROwVfFw7po9/QiNTb4Y7alnrQp2Rg557d2GZxXVlR8tEgDvg/jhkjFHNA7crYdS4Fbe/hG25WZ2DUdil7cW44iNG2EqPNWpkWYwQtpvFPPfqK6ftVRmeX5bqGpoYy7DI6hRxcGA1irNVl1KPVb33ZRY2hTb5k2rzjvBe+Nw9xNNQese3Mnw8i5+efTO2RWwejWORLdLZ7T3Vj0P8Zw5NLmPLP44Y7x4hNpASkHGnF4Pw86o+kwCwTvzTNwef/ggHPZRwvdqP8uhdjQnxPhMQ3Qias6tEZsWJD7egDC6g/mGLEI7f5L/heeZAfillhx0f4hq4iy8ipNjOiHztKajb2FxxDfkEJ6p8FMTNwHfnqZ/G/A9gZYltaJnwe5BvHzkHUe4PQtyX2qUhtT3gmR0ktQrMvtkxY7XsiGNNk4gNaCsVg4wI8gQmc/kmBUuTBeOApToT2wy6GYr9kZEKmHlGX3fEeZkMTXLNMiO93nJvA7NtBlITWaCmpJ3Dj9Qo858KzFTLtkWEs1fUQY4F51P0a6p/FQvKlT7hdFl5LpLeZrxSKjWIgvkw8aQhf1lAyUC7WEHgqjU5UNNBOFGTKqJ3Ck/B0pfjN8c7P8PVeNCx/LcFIOdyOoYAflw+HO3zz7+3KWHUu4nKBiMVU1+moWBzv+gzf44uh6/0ZKO8NYrKzPKqMuR3655S0baGp7tDUt+kuEqv2iDq0GMbPl0ybRT0pRzowHFhGd9tVlJUU4Zdd4ZkWva3iVSbvkeVjvVcyi1D39D3GRvpwqe4mbo99wOjTWzhkTAmHZyZS8m+hb24Olw6tlomdv9XhQkMVcgzx1U7eE3dL1dhHSYlFPXobrdjQOvohlIa2JX6T5mrH4+ftKEhR1EtJIu/eexURly62w3XvI3yPzhuzF+J3djmVlgmL41RRMldxqCg7ceZJbJmw2vdEMKbJxD+4WqDJRFdgFKcyFSgFnRgNPMPJNPkY2smEynyCcqGzobMUSyaU7Cb0BD7i1kltBiql4B5GlmZQna0PyLQ+wY4NO8ZUdlKLce1V+BLgjtoxzNgsNtf3ga+Ui2/FQHyZiLg1NF7HJ3NSsSsTq1NQ/9d7ac0yIdZVHP5jCb7JNssFefZl4s8EiBmG02onFX1rXWSb45UxJzH91wu4Nfw3Jv3R60/Md5HEi79enzmG5vLx2hPZZlGXKCdu1+waf4/pQBC+pc8YetKBwlCHqG/PLqd6uXivoqMv6ngH75NG7NElIG0/agY/YaTDrV0mi5hRiKzHPDMR+Z3+PlrswlKify9eY9Vjx4/W0Wsnvci69Pd6nCPXEOnvfSaezTnS69BfpWXC4jjV2xN5G2i8BZh2+54IxuRkQju+9LhFvkbG0NweEbfIyxz6vkf+Xn8fWY/4nV0u9JxYykSI17G7peqM6K+/L8D3XFs/pm1Dbr/sGNPqSkH+raXQwuMd6iUWr6eClzh4aUdq8KrznOjXzSETMWcmLqgnlbXssCKMfW714qTIOqTKWCzIkhnl66OiKdPMREpaOtLTUkMj5jxcHFuBd6gTbldxaKo7NPW9npkJy5OK/WxKZIzE+9TMPcgtaUHXyyAmOtzG5QfxnXOZKMWN+SDaK6NnPtIrn8E3341CsebGagFmxCUmc7vF5+KuL8bixbXUY8eGXUev593bfSXi0oW4fHEM+Xm7oy672Z3Aij1f4esNHwN63dOeCqPDMJ9QzXWuZWbCbt/tt2XPmJxMhEbwNjFc3R7t7hh9AaYer0TkQmfMSiZEmRxxye2lB/kpebg0HkRf069GrmTbY8eY0ZZDd/A04Ed94Vnc84sZkehjSS/HV85EbBQDDmXiV9R5gxhoPmQcNOaGK4p1GbVTiLlmomxVneo1+J/jr5kQ1xLHA3M4nxN/RbNMGXE9v/ThCmYf1ESdAPR9i7X+4GysNROmkYlYpDV1/4x6YlZSKtDqD6KzOrzYUj3xxXi+hV17Vnesq2dWZNq844Abrt9yoqbjC+58gG/wMnZGrKOwy6kep3j5UpQSXH8TRH9zvhFfMTLObXmtrtkoUGUi/i2d0w+q1TaK3xxsGMGDPyqMRW56h6+vGxBl4t1iqtejt9eODZmOXlwXn3l8wZhVU5RUZB0owdG88LVzsT3ziV9vg/6ad20Bvul25IXWUCgpR9E0HZ7aFuVk8n5MXGKJuPsl3poJu32X2ZYdYzIyIfZLJoar2qPfGtpy2Og3ZOoR27M7vvSc6GzFusyh1nPgNgYDi6g/0YhusbbmQHQ/JNMeGca0Nh9Q18f0D81gcr4Px77xw870GPCVchKPAYcyIZ4N8B+mxx6g3C3u7qjA8fyfjYNZg966jNopTM6hw3w3R5l50Z/13QGiQzjetYxZi1GrTBk9UOIugdnXXtSfdodWcpfglx1a5yDujHgqVuyLFfJl1ahqncXE0iKaIu/mONqBp/rdHKX63Rz/4FapdjeHouTg7PBXTE8O4kJVBYrdF3DR8wz9M7Gfb2HVnlUda4yZFZk276weURdC3q6rxTGXG66adjycC2LohulWOPWZEHZ5j58vkYf8mwuYWVxEe0udeidLRcszPPOvYPBGkTELklEkHlol7ozQHlpV0zaLicDfuB5xt0vG8T8xvPQOnmt1KCmtRnXrDLxL86jPD98WLFOPDBsyHX26eNDWUgBdLXUoOVmBsvrH6H/7GV21e0zHxWrh09kTr6m/3kCf/xP6Oq7ipLsWZztfY8r/EudztZktUUYm75ml/RgX62DEHUPq3RwjGDQtwJTZd5lt2TEmKxMyMVTbE/HQqoYYD62SqUePebzjS8jg7kP6Q8W0uznGHlyJ+XA0RfkNTb4g+sfmMDPbgQMRAi62I9MeGcbCbZ5Tb1m1ep6OXpavlIBvzYAjmRCNS91/EbdH3sEbuu5vvt5vV0btFHqv4Lf6Z8ZzJu42hW/t0wMgRpjqcyYWYz9nQtlWgbb5FTy4GP9RtzJljO1l5OOM5xVGFvRHHWur0MX3YspSfZbARADehX/xfCLWcya2Ya/6DIkl4zkT10zPmUjLqUbLk3mMLnxRn+XRVleIigexZUKxaI9MRy/V5pRsFDU/U59JMLO0gsm5RTzsbEBexHMU9PjY5d02X2l7UdTUh56ZZUz5v2BidgatTWXYHbG4UYze953q0B6nHXrk9tXKA1HXhsV+5ZzuhMf7Ts2FeOT25bL9UbMrUvXI8COeMxFaKKjHwfyqbkttz3tMLX7C2NQ0btXF4tlaJsQJPrukFR1j2qPEh0efos4Vfl6F2K5c3rNwpPEp+l99xOTredxrcOOs6XHaMseF3LasjwtZmZCJoWiPvgZidnEZT589Rs3RXauEbZ9ELkQs4x1fVmsv1gwaNQAAIABJREFUxPajH9uegiOtf6vtet5abMy66YzI7NdaZEI5dAdDgX9xoyQszvq2+Ep52GgGYsrERjZC7aT6641p6vVuO+P0IKb8XlRGPEbZXJdMGfNv+PnHOCh/ZDZ+5H3fyse3ePrr7JtHKLJ4ns5W3j+2fWv1vZtDJiIWD64HIDF6OPXoC2b6Lhm3s5rrkSlj/g0/by2Y15uvH5mNH3nf18vLZviduEyqPpOmo8y4LLgZ2sU2/Bh9Zqw8r5KJhlsD2Mi/tokV+GZfoOlm/4ZudyP3kdvaWKYYb8Y72Rmo75jDaOA/9D5cnetYHT3/9+Oe5Dcq96tkYqM2zO0QbjJABsgAGSADycEAZYIPOolatMYDOzkObOaReSQDZGAjGaBMUCYoE2SADJABMkAGHDFAmSBAjgDaSPPltjjSIgNkgAxsTgYoE5QJygQZIANkgAyQAUcMUCYIkCOAOErYnKME5oV5IQNkYCMZoExQJigTZIAMkAEyQAYcMUCZIECOANpI8+W2ONIiA2SADGxOBigTlAnKBBkgA2SADJABRwxQJgiQI4A4SticowTmhXkhA2RgIxmgTFAmKBNkgAyQATJABhwxQJkgQI4A2kjz5bY40iIDZIAMbE4GKBOUCcoEGSADZIAMkAFHDFAmCJAjgDhK2JyjBOaFeSEDZGAjGaBMUCYoE2SADJABMkAGHDFAmSBAjgDaSPPltjjSIgNkgAxsTgYoE5QJygQZIANkgAyQAUcMUCYIkCOAOErYnKME5oV5IQNkYCMZoExQJigTZIAMkAEyQAYcMUCZIECOANpI8+W2ONIiA2SADGxOBigTlAnKBBkgA2SADJABRwxQJgiQI4A4SticowTmhXkhA2RgIxmgTFAmKBNkgAyQATJABhwxQJkgQI4A2kjz5bY40iIDZIAMbE4GKBOUCcoEGSADZIAMkAFHDFAmCJAjgDhK2JyjBOaFeSEDZGAjGaBMUCYoE2SADJABMkAGHDFAmSBAjgDaSPPltjjSIgNkgAxsTgYoE5QJygQZIANkgAyQAUcMUCYIkCOAOErYnKME5oV5IQNkYCMZoExQJigTZIAMkAEyQAYcMUCZIECOANpI8+W2ONIiA2SADGxOBigTlAnKBBkgA2SADJABRwxQJgiQI4A4SticowTmhXkhA2RgIxmgTFAmKBNkgAyQATJABhwxQJkgQI4A2kjz5bY40iIDZIAMbE4GKBOUCcoEGSADZIAMkAFHDFAmCJAjgDhK2JyjBOaFeSEDZGAjGaBMUCYoE2SADJABMkAGHDFAmSBAjgDaSPPltjjSIgNkgAxsTgYoE5QJygQZIANkgAyQAUcMUCYIkCOAOErYnKME5oV5IQNkYCMZoExQJigTZIAMkAEyQAYcMUCZIECOANpI8+W2ONIiA2SADGxOBigTlAnKBBkgA2SADJABRwxQJgiQI4A4SticowTmhXkhA2RgIxmgTFAmKBNkgAyQATJABhwxQJkgQI4A2kjz5bY40iIDZIAMbE4GKBOUCcoEGSADZIAMkAFHDFAmCJAjgDhK2JyjBOaFeSEDZGAjGaBMUCYoE2SADJABMkAGHDFAmSBAjgDaSPPltjjSIgNkgAxsTgYoE5QJygQZIANkgAyQAUcMUCYIkCOAOErYnKME5oV5IQNkYCMZoExQJigTZIAMkAEyQAYcMUCZIECOANpI8+W2ONIiA2SADGxOBigTlAnKBBkgA2SADJABRwxQJgiQI4A4SticowTmhXkhA2RgIxmgTFAmKBNkgAyQATJABhwxQJkgQI4A2kjz5bY40iIDZIAMbE4GKBOUCcoEGSADZIAMkAFHDFAmCJAjgDhK2JyjBOaFeSEDZGAjGaBMUCYoE2SADJABMkAGHDFAmSBAjgDaSPPltjjSIgNkgAxsTgYoE5QJygQZIANkgAyQAUcMUCYIkCOAOErYnKME5oV5IQNkYCMZoExQJigTZIAMkAEyQAYcMUCZIECOANpI8+W2ONIiA2SADGxOBigTlAnKBBkgA2SADJABRwxQJgiQI4A4SticowTmhXkhA2RgIxmgTFAmKBNkgAyQATJABhwxQJkgQI4A2kjz5bY40iIDZIAMbE4GKBOUCcoEGSADZIAMkAFHDFAmCJAjgDhK2JyjBOaFeSEDZGAjGUhamVCUXajo/4qpnnPIVJSYJ0yZMhuZDG5r8xz8W5GNrdjmzcb8VoqhoqQgNS0NKXH6t80WW7Zn8/Rv3yIXMWXi2L1P8A3UY7sNpIqShaPnb+FMYVbMk7VosEyZb7Fjyq56/On/jDvl2+O3zVTm4E0/Xvz9P+Nv5v6ZuL/9Fm021ynbHtl8metf7+dE5FRRtiO32gOP9z0mFz9j1DuB5up8ZEQwpyjbsO9UOzrHl+BdWMbQ+AgaT+UhPaJM1sVJI1+RuWt1hwVSph5zLGT4Mf9G5rNsTmXqMpf5Vm02b8fqcyLYsKr/W38nE0NF2YHKgSC8906tuX9IZHx2V4/AG/iIzuq9Ue34lox96/iz/q0rHA5l4iDqJ4MYuHowCuZIIBTFvkxk+US9z744hdn5Abi2hU8q5rrNZTJzilHkKkORqxxNw0F8b5mQbc/Gy4TznP7k7sfY0j/482YDTpRV4cxNL0YDH9Dq3mmwtK3Qg+HAv+hpu4JSdy1q23zwBvxoLswwymTXTcP3ahBVat5E7rS/3F3hvMvUY8eG+fv1fpbN6XrqN/O8njqc/uZ7He9O263/XiaGzmTC+bGjtzWr8inG3r7H3cps43gQ331LxvRt83XrnvS/Ve6SUiYUZR/ODa9gorMcaRGj2MggWpURI9lTj7+/TOjttWvPVpMJsT/unhVMddcYMxFipqKs+wtme86pMw9iCtfl+YLpvkvYEcqhGNWd7vsPU54KY2o3u34Gvqk7yI2bZ7l69FiLVys2Iss5eW+X07XWvRFtlmnTVpYJ2RhuFpmwy0eiGbPbHr//sQXDQiaacezyCAbffIL35RzuNBzDT3qn/ustDAaCMaeXfSPXkK0oUCTKCPi0E+FVFF56ioG5T/C+eo32xmLjBKIDKk4uBxpnMP52GT2NR42Tif595KuS8zv6Ah9wvTgtythly9gdhIqSgX3lHehSp9//xfD4KJrKo6ffFSUde8ra0DHmx8TCR4xMetGyaho/Dfvcd3FvLADv248YnfTiWs1h4wSrt9euPVoM4+dL1CPX5p040vAEvb5lTC+tYGpuAfdba7E3VRvly+ZU2178fInYlHWvwNt1Gqk6U0oaXJ6PmOmuUQVQUfbi7FAQgy35UTnMbZmHb6gZu0O/29PwAr7J29gvmEtNM+oLx06uHr282vY4/CiKdXy0/U5MTkWMVMbUy0CfMDL+HPUn967aP73d8ZiX4bDk/gp8jy8Yl49i8Wa377Js2HGopNWgPTCPlsaHGJz/gJ6mEhRef4nxv/y4W5tnHPcy8VHcA/D5B1BZ0oGHvo+YfONH97165GaGZ630+FnnfRcOXx5E38uP8M69xt2LLlT3R1/msGuPfHzs+Uk9PRjV9w7d/C3qGNH3KVYe9e/4+mOf+L9F/uPLxPQbdN7/HaXualTffQFv4D1ulmjrD5TMPBSUVcBV1oi2F0EM32+ES/1cAVdhLraJjl2ijNgh9UQ4/Rr3PNdQ6q5CVesMJgLLuF26I+oAUZQ0/Nb2N2YDK3jedjJupyrq3H/1NXxz93EkdBKMFTirMnYHYXrBPTxbEtPvTTgp4tM2C++SH1cKthltTj/SjsGlj3h89ypKy86g4vdxjCy9x+2y8DR+akEHhpaW0d16GSdKq3Dmj2mMB97hhit6nYdde7QYxs+X2H+ZNqcUejAWeIfOq+dQXFKO0ose9LxZwaOGPHW/ZHMqtmeXr0zXQzx/+xdulOciTUlD9kkPBhb9aDmWqW1L+QXnR1ZfQlPzFhJWsZ19ja/g8/bgUvscxv0rmH6zgHtXwjKqSNYTyUg8NuziI+pIVE7TC7swvLQcYqwG1W0zmPD/hfpDsQU5XptlOJSRCbt9l2XDjkNNJpbRc6sOpc3jmJhfwO3GWpzxLML30oNDIYmUiY8mE0sY7H2M2opKnLz0EH3zQQy1FsecsYwXw8zSXowFltHTehkn3TU45xlErzdaJuzaIxsfGX5SsvJDl/PO48ZkEJQJikFk//W93seXiRceHE4LjUiVQ+raiJHWYuNkKRosM6VpV0Y9Efq6cEgf/YZGpN4Od9S21O2lZGDnnt3YlhJ7ZKG1KR8N4gD745gxijEHV1Gsy9idvAva3sM33KzOwGjb3Itzw0GMtpUYbdbKtBgjaDGNf+rRV0zfrzJEKMt1DU0NZdhljM5zcGE0iLFWl1GPVr/1ZRc1hjb5kmnzjvNe+N48xNFQe8S2M38+iJyffzK1R+66r2KRLyEbe091Y9D/GcOTS5jyz+OGO8eITaQEpBxpxeD8POqPpGiiGCETvzTNwef/ggHPZRwvdqP8uhdjQnxPhMQ3Qias6tEZsWJDJj6Jymlhx0f4hq4iy2BDm2ExH4MaH/F5luFQRiZk9l1rizUbdhxqMvEBLYViQHIBnsAETv+kQCnyYDzwFCdC/YRMfFSZCCyg/mCKwW9u81/wvfIgP4JxuxgWqbkIz4YpqUVo9kXLhEx7ZOIjy49WlybclAnKhODhe//Fl4knDeHLGkoGysUaAk9lVIPtREHm4FFPhE+i7xw53vkZvt6Lq6b7ZYKVcrgdQwE/Lh8OdyDm39mVsZIJMU0rYjHVdToqFse7PsP3+GLoen8GynuDmOwsjypjbof+OSVtGzIytyMjcxcqe1ev1bBqj6hDi2H8fMm0WdSTcqQDw4FldLddRVlJEX7ZFZ5p0dsqXmXyHlk+1nslswh1T99jbKQPl+pu4vbYB4w+vYVDoSnoKJnIv4W+uTlcOrRaJnb+VocLDVXIMcRXO+lO3C1VYy9bj95GKzZk4yPqcpJTNV+94mRVEeJCsLEdrnsf4Xt0ftWoOl6b9XrsOJSRCdl9t2JDhkNNJv7B1QJNJroCoziVqUAp6MRo4BlOpinqJTtxfNnFR5OJIZSG2BB5SXO14/HzdhSYBiTxY5i56lgWl3zOPAnLhB5nu/aI7VvFR2dQhh+tLspEZMz4/vsKRXyZiLg1NN7JTObAsCujnggjtiWAUP/Xe2nNMiHWVRz+Ywm+yTbLBXn2ZeLPBIgZhtNqRxZ9W1hkm+OVMcOe/usF3Br+G5P+6PUn5rtI4sVfr88cQ3P5eO2JbLOoS5QTt2t2jb/HdCAI39JnDD3pQGF29EyQXU71dsV7FZ1vUcc7eJ80Yo8uAWn7UTP4CSMdbu0yWcSMQmQ95ssckd/p76PFTu5yifitHT8y8UlETvV8Rd7qqr/3mY4Lqzbr9djdwigjEzL7rsUw/sxEvPZEcignE9oxqMck8jUyPppMaAKisxHrda0xNC/A1Pcrsh36+8j22MVHfC/Lj1YXZSJWPvm/7yMVm0MmYs5MXFBPKmsBQ0ktxrW5IPqvWNyqKlPG4m4OqdGVmL3oDWLKNDORkpaO9LTU0Ig5DxfHVuAd6oTbVYz8gmPILyhB/bN1zkxECNlqmbCfTTHHOTVzD3JLWtD1MoiJDrdx+UGUcy4TpbgxH0R7ZfTMR3rlM/jmu1Eo1txYLcCMuMRkbrf4XNz1xVhQuJZ6ZPjRtxcrPoqSmJwaI93uKyEuBBuhv7zdUZfvrNqs12PFoRovz1f4esPHm/67aU9FzJm1WPuux8WKDaljR12AKTkzYRMfaZmw6BMUZQ0zEzbtETGyjo88P1pdlAmdO75+H4GIjLtDmfgVdd4gBpoPxex0NOCty6ijkphrJspW1aleg/85/pqJVNdDjAfmcD4neiQducMyZcT1/NKHK5h9UBPVcev1xLruezbWmonn2p0tWhy2o7z3K6bun1FPzEpKBVr9QXRWhxdbqie+GM+3sGuP3cyE2L5Mm3cccMP1W07UNHrBnQ/wDV7GzohrzIpinVM9TvHypSgluP4miP7mfCO+YnSY2/JaXbNRoMpE/Fs6px9Uq20UvznYMIIHf1QYTznVL2voawtEmXi3mOr16O21Y8MuPonMqbgGP/P4gjE7pyipyDpQgqN50Q+Is2uzmncLDsW+511bgG+6HXmhqX8l5SiapqPvpLHbdz2GdmzYcSgzMyG2JRMfWZmwi+ExcXkp4g6ieGsmZPJlFZ+18CNioLMef82EdT+m54yv3/9EnAw5cCgT4tkA/2F67AHK3eLujgocz/85SgLEFKBVGfVEODmHDvPdHGXmRX/Wd3OIE+7xrmXMWoxaZcroSRV3Ccy+9qL+tDu0croEv+zQJEWsSH8qVtqL1d1l1ahqncXE0iKaIu/mONqBp/rdHKX63Rz/4FapdjeHouTg7PBXTE8O4kJVBYrdF3DR8wz9M6tnJkSbrNojIxMybd5ZPaIuhLxdV4tjLjdcNe14OBfE0I3oW8/sciraK2Id7+4b8V3+zQXMLC6ivaVOvZOlouUZnvlXMHijyJgFySgSD60SdzRoD62qaZvFROBvXI+42yXj+J8YXnoHz7U6lJRWo7p1Bt6ledTnh+96kKlHhg27+CQyp+nigV1LAXS11KHkZAXK6h+j/+1ndNXuMY4vmTan23AocpX66w30+T+hr+MqTrprcbbzNab8L3E+V5tFE2Xs9l2U0fJufbzbcSgrE1LxEbeGhtZZ6O0zv8rEMLO0H+NiLZG460q9m2MEg6YFmDLtsYuPDD9CKncf0h/Opt3NMfbgSsyHtYntWfUb5ljwM6XCCQOOZEJsOHX/RdweeQdv6Lq/+Xq/XRn1RNh7Bb/VPzOeM3G3KXxrn75zYoSpPmdiMfZzJpRtFWibX8GDi9GPltV/L15lyujllYx8nPG8wsjCinpPty+grTBX69GfMzERgHfhXzyfiPWciW3Yqz5DYsl4zsQ103Mm0nKq0fJkHqMLX9RnebTVFaLiQWyZsGqPjEyIKWb1uQVWbU7JRlHzM/V++pmlFUzOLeJhZwPyYtyXb5d323yl7UVRUx96ZpYx5f+CidkZtDaVYXfEYjlxuWbfqQ7tcdqhR25frTxgPA9Bz0XO6U54vO/UXIhHbl8u2x81uyJVjww/EvFJVE7VNqv79R5Ti58wNjWNW3XRx4UMz6IeOw7FCTW7pBUdY9pjy4dHn6LOFf1MC0Vi3/Vjx4oNOw5lZUIqPjIyIZN3JQtHGp+i/9VHTL6ex70GN86aHqct0x6Z+NjxY7U+Q6zTiHyMvHp8WPRjenv4SolIBAMxZSIRFcvWoZ4I++uNaWrZ35nLZZwexJTfi8qIxyivp4z5N/z8YxxoMvxsNha2YpsZwx/jeNpseWZ7vj13m0MmIhYPrifpwtZPPfqCmb5Lxu2s5npkyph/w8/fHsDNEOOtyMZWbPNmyHVkGxjDH+P4jsw533+7nK+SiYZbA9jIv7aJFfhmX6DpZv+Gbncj95Hb2limGG/GmwxYM8CT6rc7qf6osV0lEz9qILjfPLjIABkgA2SADKyPAcrEJngMKeFdH7yMG+NGBsgAGdgcDFAmKBPGrYY8KDfHQck8MA9kgAxsNQYoE5QJygQZIANkgAyQAUcMUCYIkCOAtpo9s70c8ZEBMkAGEs8AZYIyQZkgA2SADJABMuCIAcoEAXIEEA0/8YbPmDKmZIAMbDUGKBOUCcoEGSADZIAMkAFHDFAmCJAjgLaaPbO9HPGRATJABhLPAGWCMkGZIANkgAyQATLgiAHKBAFyBBANP/GGz5gypmSADGw1BigTlAnKBBkgA2SADJABRwxQJgiQI4C2mj2zvRzxkQEyQAYSzwBlgjJBmSADZIAMkAEy4IgBygQBcgQQDT/xhs+YMqZkgAxsNQYoE5QJygQZIANkgAyQAUcMUCYIkCOAtpo9s70c8ZEBMkAGEs8AZYIyQZkgA2SADJABMuCIAcoEAXIEEA0/8YbPmDKmZIAMbDUGKBOUCcoEGSADZIAMkAFHDFAmCJAjgLaaPbO9HPGRATJABhLPAGWCMkGZIANkgAyQATLgiAHKBAFyBBANP/GGz5gypmSADGw1BigTlAnKBBkgA2SADJABRwxQJgiQI4C2mj2zvRzxkQEyQAYSzwBlgjJBmSADZIAMkAEy4IgBygQBcgQQDT/xhs+YMqZkgAxsNQYoE5QJygQZIANkgAyQAUcMUCYIkCOAtpo9s70c8ZEBMkAGEs8AZYIyQZkgA2SADJABMuCIAcoEAXIEEA0/8YbPmDKmZIAMbDUGKBOUCcoEGSADZIAMkAFHDFAmCJAjgLaaPbO9HPGRATJABhLPAGWCMkGZIANkgAyQATLgiAHKBAFyBBANP/GGz5gypmSADGw1BigTlAnKBBkgA2SADJABRwxQJgiQI4C2mj2zvRzxkQEyQAYSzwBlgjJBmSADZIAMkAEy4IgBygQBcgQQDT/xhs+YMqZkgAxsNQYoE5QJygQZIANkgAyQAUcMUCYIkCOAtpo9s70c8ZEBMkAGEs8AZYIyQZkgA2SADJABMuCIAcoEAXIEEA0/8YbPmDKmZIAMbDUGKBOUCcoEGSADZIAMkAFHDFAmCJAjgLaaPbO9HPGRATJABhLPAGWCMkGZIANkgAyQATLgiAHKBAFyBBANP/GGz5gypmSADGw1BigTlAnKBBkgA2SADJABRwxQJgiQI4C2mj2zvRzxkQEyQAYSzwBlgjJBmSADZIAMkAEy4IgBygQBcgQQDT/xhs+YMqZkgAxsNQYoE5QJygQZIANkgAyQAUcMUCYIkCOAtpo9s70c8ZEBMkAGEs8AZYIyQZkgA2SADJABMuCIAcoEAXIEEA0/8YbPmDKmZIAMbDUGKBOUCcoEGSADZIAMkAFHDFAmCJAjgLaaPbO9HPGRATJABhLPAGWCMkGZIANkgAyQATLgiAHKBAFyBBANP/GGz5gypmSADGw1BigTlAnKBBkgA2SADJABRwxQJgiQI4C2mj2zvRzxkQEyQAYSzwBlgjJBmSADZIAMkAEy4IgBygQBcgQQDT/xhs+YMqZkgAxsNQYoE5QJygQZIANkgAyQAUcMUCYIkCOAtpo9s70c8ZEBMkAGEs8AZYIyQZkgA2SADJABMuCIAcoEAXIEEA0/8YbPmDKmZIAMbDUGKBOUCcoEGSADZIAMkAFHDFAmCJAjgLaaPbO9HPGRATJABhLPAGWCMkGZIANkgAyQATLgiAHKBAFyBBANP/GGz5gypmSADGw1BigTlAnKBBkgA2SADJABRwxQJgiQI4C2mj2zvRzxkQEyQAYSzwBlgjJBmSADZIAMkAEy4IiBpJUJRdmFiv6vmOo5h0xFiRkkmTI02MQb7FaI6UaysZHbSlTst1KbFSUFqWlpSInTDyQqJqznx+wrmHct7zFl4ti9T/AN1GO7zcGnKFk4ev4WzhRmxTxZiyDLlPkWyVB21eNP/2fcKd8ev22mMgdv+vHi7/8ZfzP3z8T97bdos7lO2fbI5stc/3o/JyKnirIdudUeeLzvMbn4GaPeCTRX5yMjgjlF2YZ9p9rROb4E78IyhsZH0HgqD+kRZbIuThr5isxdqzsskDL1mGMhw4/5N/pnJfMwqh8HMBsIwvegxpYhJ9vStxnrVZafWL+1+9+3arPYbqJ53l09Am/gIzqr98bMRSJ4tosXv6doJDsDDmXiIOongxi4ejDmQSqCpyj2Zb5FkLMvTmF2fgCubeGTink75jKZOcUocpWhyFWOpuEgvrdMyLYn0Z2vOU7mz4nI6U/ufowt/YM/bzbgRFkVztz0YjTwAa3unQZL2wo9GA78i562Kyh116K2zQdvwI/mwgyjTHbdNHyvBlGl5k3kTvvL3RXOu0w95n00s2H+Pt7n1J9PoWXsE2ZejuO+V04m1ruteG3Q/y/Lj15+La/fqs2iDYnmOavyKcbevsfdymyDm8h9TQTPkfXxPcXhR2QgKWVCUfbh3PAKJjrLkRYxio1MsFUZMZI99fj7y4TeXrv2JLrz1bcb79Vp5yv2x92zgqnuGmMmQsxUlHV/wWzPOXXmQUxNuzxfMN13CTtCORQjyNN9/2HKU2FMWWfXz8A3dQe5cfMsV0/kvlqxEVku1vtiz1dMDHWgcHc6yrrtZcLJtmJtP9b/7PiJ9Rur/33rNqs899fHvTxp1bb1fOeU5/Vsk7+hcCQbAxYy0Yxjl0cw+OYTvC/ncKfhGH7SO/Vfb2EwEIw5vewbuYZs5f+zc+5fTRzvH/9/9kCQg/V2rFqE0yoqghIq5IigYL0BgoD1UqGCEKugIKIgt3CLihY0pFYp6qfk+2+9v2d2s5vNkt0d3WC5vH/gJCGT2Wee5zUz72d2ZhUoEmWEM7WJsAlFl56gf/YjQi9fob2hxJhAdIeLyeWnhmmMvVlET8MRYzLRvze/Krm/oi/6AddKfCkzEVHWqYzb4Kso2dhX0YEudfn9HwyNjaCxInn5XVGysKe8DR2jEYzPL2F4IoSWFcv4PuwL3Mad0ShCb5YwMhHC1ZpDxgSrt8nNHs2H9vFS2ytl83Ycrn+M3vAiphaWMTk7j7utZ7E3U8vyZWOqXc8+XsI35d3LCHWdQqbOlOKDP7iE6e4aVQAqyl78MhjDQEtBUgzzWuYQHmzGrvjv9tQ/R3jiFvYL5jJ9Rn0J38nVo5dXbU/Bj5JzFh1vlxE8m3xLL/vUE0y9fYoTOZqPfiyrwd4sBYrikxMTKa6l+c85FlqZ9PAj4qHyrN5y+ojhsWeoO7F3hS91H9n1HUVxt7n07jLCDy8Yt6pSsa3y3NeII/qY8GIWty8fM8YExVeD9ugcWhruY2DuA3oaS1F07QXG/ozg9tl8Y2zIPDWQNEYN3jiaxNKX8Ky3na8UAWQgNQP2YmLqNTrv/oqyQDWqbz9HKPoeN0q1/QdKTj4KyyvhL29A2/MYhu42wK9+roS/KA9bxMAuUUYERR04pl7TLps5AAAgAElEQVThTvAqygJncKZ1GuPRRdwq25bc8RUfjrb9hZnoMp61nbAd6ESd+5teITx7F4fjk2Cq4DuVSTXAmevIKryDpwti+b0RJ4R/2mYQWojgSuEWw+asw+0YWFjCw9tNKCs/jcpfxzC88B63yhPL+JmFHRhcWER362X8XHYGp3+bwlj0Ha77k/d5uNmj+dA+XsJ2GZszioIYjb5DZ9M5lJRWoOxiED2vl/GgPl9tl2xMxfXEZOoUrxz/fTx78yeuV+TBp/iw+0QQ/W8jaDmWo11L+QHnh1feQlPjFhes4jr7Gl4iHOrBpfZZjEWWMfV6HneuJMSoIlmPOb6p2FCU71DR+y+mHpw3xJ5oY4kQQL0XVmTRsmIi1bWELW6xEGXSxU9WUReGFhbjPNegum0a45E/UXcwtRj3YrO0mAi9xG11TKhGdes0QtEP+K3sO40NVUwsoudmLcqaxzA+N49bDWdxOvgW4RdBHIwLzYydBfHbXudxfSKGFWJCcowys8H3qScS+oV+sRcTz4M45ItnpMpBdW/EcGuJMVkKeGSWB93KqBNhuAsH9ew3npGGOgJJ11Kvl5GN7Xt2YUtG4n64FWJFKUC9GDh+O2ZkKF9axm3yLmx7j/BQs7oCo/lhL84NxTDSVmrYrJVpMTJosYx/8sG/mLp7xhBCO/1X0Vhfjh1Gdp6LCyMxjLb6jXq0+p1vu6g+dImXjM3bzocQfn0fR+L2iGvnfH8Aud9rg7juR7eYGuUc4iUm270nuzEQ+YShiQVMRuZwPZBr+MYsAjIOt2Jgbg51hzM0oWgSEz80ziIc+Yz+4GUcLwmg4loIo0L4/hwXviYx4VSPYbMDP9vOjWPmzQBK4/twlMyfcf3VMoLnklcrRF0yYsKJVZlYpIufoo4lhAebsNPgUFvNsfZ3rV32/UvGZmkxYRkTRP8KdZSr/UJbmfiAliKRtFxAMDqOU98pUIqDGIs+wc+WJEJnySomEjH/b/Z16dfnKyfijcCAvZh4XJ+4raFko0LsIQhWWSY5907oNvGoE+Hj5JMjxzs/Idx70cgAv8TRGYfaMRiN4PKhjCRbzXW4lXESE+IWh/DFZNeppPqPd31C+OHF+P3+bFT0xjDRWZFUxmyD+X2Gbwuyc7YiO2cHqnpX7tVwskfUo/nQPl4yNot6Mg53YCi6iO62JpSXFuOHHYmVFrO9bjE1l7V7r+QUo/bJe4wO9+FS7Q3cGv2AkSc3cTB+u0CfAMTm3oyCm+ibncWlgyvFxPajtbhQfwa5hvDVJsLx22Wq72Xr0e10YkPZ3Yie6BJuntAy9ozCOxhemEb17pXiVkZMOF1LNhbCbi/8qGz0xhC6UxlnUHC4Ff47Swg/OL9iz5FXm6XFhHVMEP2r94K26qmuTPyNpkJNTHRFR3AyR4FS2ImR6FOciLOgx1RngGKCk7bOBF/Tz4K9mDAdDbWbzGQmFbcy6kRoupYIsvq/3ktfLCbEvopDvy0gPNHmuCHPvYz9SoBYYTilDr4nk4SC2Wa7MlaAs368gJtDf2Eikrz/xHqKxM7/en1WH1rL29ljtlnUJcqJ45pdY+8xJY41LnzC4OMOFFkmS7eY6nbZvYoJrLjjHUKPG7BHFwG+/agZ+IjhjoA2YZhWFMz1WG9zmL/T3ycLO7nbJeK3bvzok9Lo7TJ11evHX+cRfqbtEdKvrb+6iQn3a7nHIh386GyYj9Xq78OWPpgOm6XFhMOYoK1MUEzorPE1/RMjffrlPl0bYsKahagrE1oW8iVBVTJLcHU2hkdXHI6qypRxOM0hk+Xr2d6kZWUiw5eFLF9mPGPOx8XRZYQGOxHwl6Cg8BgKCktR9/QrVyZMg+9KMeG+mmL1c2bOHuSVtqDrRQzjHQHj9oMo511MlOH6XAztVckrH1lVTxGe60aR2HPjtAHTdIvJarf4XNL12djk9yX1yPCTK26rvAiiICMfl8Zi6Gv8MUlU6va4igkJDvW6UsVCUdLDj85qqPtKnEHBYfwvf1fSrUIZ/zjZrMYm+K+xwiA+69efClYaflRFrnVMUFcmtNVKiokvH+j1uPCVvlstBjyKiR9RG4qhv/mgMRBYDVUU5zLqwGG5Pyp28ev3R831KeIe/Pf2eyYy/fcxFp3F+dyVy856PTJlxERQdn8ZM/dqkgZTvY5U+w9+SbVnwpS1igxQbOCbvHtanZiVjEq0RmLorE5stlQnvhTPt3Czx21lQtgtY/O2nwLwH81NWtou/P0DwgOXsd20j8Itprqf7OKlKKW49jqGR80Fhn9F1pvX8krds1Goign7I51T96rjJz4ycKB+GPd+qzQ2QOqrB/r9flGv3RFTvR7dXik2frqFgehb1P3cgO7oPOp+Ss2am5hwu5ZbLNLJj9gzMf3wgrESqCiZ2PlTKY7kJ+8F8Wqz8HP+1XmEp9qRH9/3pGQcQeNU8qmdVGOCtmdC20eVfjHhPEbpfPCVEzEZsGfAo5gQzwb4H6ZG76EiIE53VOJ4wfdJwkJMok5l1IFjYhYd1tMc5dZNf86nA8TgfbxrETMOWatMGR0WcUpg5lUIdacC8R3hpfhhmzZxiJMRT8Tu99bLOFFejTOtMxhfeItG82mOIx14op/mKNNPc/yNm2XaaQ5FycUvQ/9iamIAF85UoiRwAReDT/FoeuXKhLDJyR4ZMSFj8/bqYXUj5K3aszjmD8Bf0477szEMXrccqXOJqbBX+NruNIf4ruDGPKbfvkV7S616kqWy5SmeRpYxcL3YWAXJLhYPrRKnDLSHVtW0zWA8+heumU67ZB//A0ML7xC8WovSsvjO/4U51BUkTiLI1CPLhqIcRWM4hkejs5ie6cBPJpEl2r2z4JRxsunKUAzhwY745+P4PkvjR+ZabrFIJz9Z4uFgC1F0tdSi9EQlyuse4tGbT+g6u8foy+mwWfgn88fr6It8RF9HE04EzuKXzleYjLzA+TxtxU6U0cTEHLripznOqKc5FnErPibIiAkhiHYd1B9ipp3mGL13JeVDzdzGKGET/+gDMuDMgCcxIZybuf8ibg2/Qyh+3996v9+tjDpw9F7B0bqnxnMmbjcmjvbpARQZpvqcibepnzOhbKlE29wy7l1M/chcUY9MGeN62QU4HXyJ4fll9ax6OKrtHlfr0Z/ZMB5FaP4fPBtP9ZyJLdirPkNiwXjOxFXLcyZ8udVoeTyHkfnP6rM82mqLUHkvtZhQHOyRERNiOVl9loCTzRm7Udz8FH0vljC9sIyJ2be431mP/PimSN034tUt7q7x8u1FcWMfeqYXMRn5jPGZabQ2lmOXafOcuF2z72SH9jjt+CO3m6p+Mp5RoMci91QngqF3aizEI7cvl+9PWl2RqkeCH+16GTjc+pfKxLPWEmNlRfeN2BOg7zkwv4ajUzizMy4mJK6lSMQiXfyo/lF9+B6Tbz9idHIKN2uT+6BM35GxWYiS3aWt6BjVHpE+NPIEtf7kZ1poPLfgeMMzDLz6tOLZM3JiQtvbZI6B+b35cesyPOvx5avzhEL/bF7/pBQT3xIIdeBIw9Pusk8NYDISQpXpMcrWdsiUsf6GnzdH5/iWbHzLa6WL3/Voc7razno2xxjAOHuL89oQE6bNg18TULFMefLBZ0z3XTKOs1rrkSlj/Q0/e4NrvfjvW7LxLa+VLv+vR5vT1XbWsznGAMbZe5xXiIn6m/34ln9t48sIzzxH441H3/S637KNvNa3ZYr+pr/TxQAnGe+TDH24OXy4Qkww8Jsj8Iwz40wGyAAZIAPpYoBigju1uVOdDJABMkAGyIAnBigmCJAngNKlalkPMyQyQAbIwPplgGKCYoJiggyQATJABsiAJwYoJgiQJ4CYSazfTIKxY+zIABlIFwMUExQTFBNkgAyQATJABjwxQDFBgDwBlC5Vy3qYIZEBMkAG1i8DFBMUExQTZIAMkAEyQAY8MUAxQYA8AcRMYv1mEowdY0cGyEC6GKCYoJigmCADZIAMkAEy4IkBigkC5AmgdKla1sMMiQyQATKwfhmgmKCYoJggA2SADJABMuCJAYoJAuQJIGYS6zeTYOwYOzJABtLFAMUExQTFBBkgA2SADJABTwxQTBAgTwClS9WyHmZIZIAMkIH1ywDFBMUExQQZIANkgAyQAU8MUEwQIE8AMZNYv5kEY8fYkQEykC4GKCYoJigmyAAZIANkgAx4YoBiggB5Aihdqpb1MEMiA2SADKxfBigmKCYoJsgAGSADZIAMeGKAYoIAeQKImcT6zSQYO8aODJCBdDFAMUExQTFBBsgAGSADZMATAxQTBMgTQOlStayHGRIZIANkYP0yQDFBMUExQQbIABkgA2TAEwMUEwTIE0DMJNZvJsHYMXZkgAykiwGKCYoJigkyQAbIABkgA54YoJggQJ4ASpeqZT3MkMgAGSAD65cBigmKCYoJMkAGyAAZIAOeGKCYIECeAGImsX4zCcaOsSMDZCBdDFBMUExQTJABMkAGyAAZ8MQAxQQB8gRQulQt62GGRAbIABlYvwxQTFBMUEyQATJABsgAGfDEAMUEAfIEEDOJ9ZtJMHaMHRkgA+ligGKCYoJiggyQATJABsiAJwYoJgiQJ4DSpWpZDzMkMkAGyMD6ZYBigmKCYoIMkAEyQAbIgCcGKCYIkCeAmEms30yCsWPsyAAZSBcDFBMUExQTZIAMkAEyQAY8MUAxQYA8AZQuVct6mCGRATJABtYvAxQTFBMUE2SADJABMkAGPDFAMUGAPAHETGL9ZhKMHWNHBshAuhigmKCYoJggA2SADJABMuCJAYoJAuQJoHSpWtbDDIkMkAEysH4ZoJigmKCYIANkgAyQATLgiQGKCQLkCSBmEus3k2DsGDsyQAbSxQDFBMUExQQZIANkgAyQAU8MUEwQIE8ApUvVsh5mSGSADJCB9csAxQTFBMUEGSADZIAMkAFPDFBMECBPADGTWL+ZBGPH2JEBMpAuBigmKCYoJsgAGSADZIAMeGKAYoIAeQIoXaqW9TBDIgNkgAysXwYoJigmKCbIABkgA2SADHhigGKCAHkCiJnE+s0kGDvGjgyQgXQxQDFBMUExQQbIABkgA2TAEwMUEwTIE0DpUrWshxkSGSADZGD9MkAxQTFBMUEGyAAZIANkwBMDFBMEyBNAzCTWbybB2DF2ZIAMpIsBigmKCYoJMkAGyAAZIAOeGKCYIECeAEqXqmU9zJDIABkgA+uXAYoJigmKCTJABsgAGSADnhigmCBAngBiJrF+MwnGjrEjA2QgXQxQTFBMUEyQATJABsgAGfDEAMUEAfIEULpULethhkQGyAAZWL8MUExQTFBMkAEyQAbIABnwxADFBAHyBBAzifWbSTB2jB0ZIAPpYoBigmKCYoIMkAEyQAbIgCcGKCYIkCeA0qVqWQ8zJDJABsjA+mWAYoJigmKCDJABMkAGyIAnBigmCJAngJhJrN9MgrFj7MgAGUgXAxQTFBMUE2SADJABMkAGPDFAMUGAPAGULlXLepghkQEyQAbWLwMUExQTFBNkgAyQATJABjwxQDFBgDwBxExi/WYSjB1jRwbIQLoYoJigmKCYIANkgAyQATLgiYENKyYUZQcqH/2LyZ5zyFGUlE6SKZMu1cZ61lcGQDa8x2s9+tCrzYqSgUyfDxk2Y85qjANebV4Nm1in9/6z3nyYUkwcu/MR4f46bHXpEIqyE0fO38Tpop0pJ2vhDJkyq+E0ZUcd/oh8wu8VW+1ts5Q5cCOC53/9n/E3ffe07W9Xw2ZrnbL2yMbLWv/Xfk5HTBVlK/KqgwiG3mPi7SeMhMbRXF2AbBNzirIF+062o3NsAaH5RQyODaPhZD6yTGV2Xpww4mWOXWsgISBl6rH6QoYf62/S/Tkdfk63TV9S32r5UKZfyJRJ1RarzV9az67qYYSiS+is3vvVY8eXxt1qc6p28X+bb3L/1jH3KCYOoG4ihv6mA7YdR1Hcy6xGo3dfnMTMXD/8WxKTivU61jI5uSUo9pej2F+BxqEY/msxIWvPtxcT3mP6XeARRhf+xh836vFz+RmcvhHCSPQDWgPbDZa2FAUxFP0HPW1XUBY4i7NtYYSiETQXZRtldtdOIfxyAGfUuInYaX95OxJxl6nHjQ3r99/i83/Vd9LVNmv/Sle9Mv1Cpkwqe6w2f2k9O6ueYPTNe9yu2m0wmuo6Tv/70rhbbXaqm99RVKwWAxtSTCjKPpwbWsZ4ZwV8pizW7ESnMiKTPfnwvxcTur1u9qw3MSHaE+hZxmR3jbESIVYqyrs/Y6bnnLryIJaL/cHPmOq7hG3xGIqM7VTf/zAZrDSWkXfXTSM8+TvybOMsV4/ua/HqxIa53Gq//9JJZbXt+ZL6v4UP3fqFsFemjN4uJ5u/pB69vq99/ZK4O9n8tdfn7yg4voYBBzHRjGOXhzHw+iNCL2bxe/0xfKcP6j/exEA0lnJ5OTx8FbsVBYpEGWGwNhE2oejSE/TPfkTo5Su0N5QYE4jeKDG5/NQwjbE3i+hpOGJMJvr35lcl91f0RT/gWonPNjtwKuM2cChKNvZVdKBLXX7/B0NjI2isSF5+V5Qs7ClvQ8doBOPzSxieCKFlxTK+D/sCt3FnNIrQmyWMTIRwteaQMcHqbXKzR/OhfbxEPXI2b8fh+sfoDS9iamEZk7PzuNt6FnsztSxfNqba9ezjJXxT3r2MUNcpZOpMKT74g0uY7q5RBaCi7MUvgzEMtBQkxTCvZQ7hwWbsiv9uT/1zhCduYb9gLtNn1JfwnVw9ennVdht+ZGJaencZ4YcXjFsxqWKnKOnxs1tMFV8N2qNzaGm4j4G5D+hpLEXRtRcY+zOC22fzjT4k2qXyrN5y+ojhsWeoO7E3yZdKoB/hSD+qSjtwP7yEidcRdN+pQ15OYgXIzYfy9qSnX6ix/ILEwMuYkHlqIGk8HLxxNIlbzZb0xN3Nz+J7mXFVUdz9LFgtqB9A33MR83l0Np7Cuf4YQh3lRvtk+DHbzPcbU6zYi4mp1+i8+yvKAtWovv0coeh73CjV9h8oOfkoLK+Ev7wBbc9jGLrbAL/6uRL+ojxsEQO7RBkD+qlXuBO8irLAGZxpncZ4dBG3yrYZsIpyAvyjbX9hJrqMZ20nkgY6K5z7m14hPHsXh+OToPV78dmpTKoJwFxHVuEdPF0Qy++NOCH80zaD0EIEVwq3GDZnHW7HwMISHt5uQln5aVT+Oobhhfe4VZ5Yxs8s7MDgwiK6Wy/j57IzOP3bFMai73Ddn7zPw80edeBwiJewXcbmjKIgRqPv0Nl0DiWlFSi7GETP62U8qM9X2yUbU3E9t3jl+O/j2Zs/cb0iDz7Fh90nguh/G0HLsRztWsoPOD+88haaGre4YBXX2dfwEuFQDy61z2Issoyp1/O4cyUhRhXJeszxtWNDJqYyYiJdfnaLqTZ5L6LnZi3KmscwPjePWw1ncTr4FuEXQRyMC7Ksoi4MLSzGea5Bdds0xiN/ou5gQoxrYmIBA70PcbayCicu3UffXAyDrSUpV/9S+VDWnnT1C41D+VXGVDbrXLj1wYydBfFbbOdxfSKGVGIiXXHXbRKvdjZrY4LzuCrj5+yfH2AkuoQHbQ04EajBueAoBp4niwkZfsw28/1mExPPgzjki2ekykF1b8Rwa4kxWQogZJbj3Mqo0Ie7cFDPfuMZaagjkHQt9XoZ2di+Zxe2ZKTOhjSbClAvOvNvx4zMywqvojiXcRs4CtveIzzUrK7AaNfci3NDMYy0lRo2a2VajAxaLOOffPAvpu6eMYTQTv9VNNaXY4eRnefiwkgMo61+ox6tfucBUfWhS7xkbN52PoTw6/s4ErdHXDvn+wPI/f47iz1yeyYUh3gJsbH3ZDcGIp8wNLGAycgcrgdyDd+YRUDG4VYMzM2h7nCGNniaxMQPjbMIRz6jP3gZx0sCqLgWwqgQvj/Hha9JTDjVozPixIZMTGXERLr87BZTbfL+gJYiIe4vIBgdx6nvFCjFQYxFn+DneJ8r6lhCeLAJOw0OtdUcc39XxUR0HnUHMgwW8pr/RPhlEAUmXjReU/cvWXvS1S9k+o5M3L+sHk0EpxIT6Yq7jM0y46qMn1XGxm5gn85GZhGawsliQoYf3Wa+bkwhIeJqvzLxuD5xW0PJRoXYQxCsMgYS8WM3oSBTRoX+cfLJkeOdnxDuvbhiuV8GxIxD7RiMRnD5UGLQs/7OrYyTmBBLy8IXk12nknxxvOsTwg8vxu/3Z6OiN4aJzoqkMlY79M8Zvi3IztmK7JwdqOpduVfDyR5Rh+ZD+3jJ2CzqyTjcgaHoIrrbmlBeWowfdiRWWnRbxatM3M3lU71XcopR++Q9Rof7cKn2Bm6NfsDIk5s4GF82TxITBTfRNzuLSwdXiontR2txof4Mcg3hq02E47fLVN/L1qPbaMeG6kOJmMqIiXT4WSam2uT9N5oKNTHRFR3ByRwFSmEnRqJPccKnqLe/BKuhO5VxBgWHW+G/s4Twg/PGqoMmJgZRFvez8JfP346Hz9pRaBH3tj5Ub7s426PHQbx67ReiDre+o1/Pzmb9e9l6dN5SiYl0xF23R7w62fwl46qdnxUlE2X3YwjfP2skZuK2x+nHCTGh9ws3fsx28/3GFBT2YsJ0NNSuI8lMKm5lVOhN1xKgqf/rvfTFYkLsqzj02wLCE22OG/Lcy9ivBIgVhlPq4HsySSiYbbYrY+1EWT9ewM2hvzARSd5/Yj1FYud/vT6rD63l7ewx2yzqEuXEcc2usfeYisYQXviEwccdKNqdvBLkFlPdLrtXMQAVd7xD6HED9ugiwLcfNQMfMdwR0G6TmVYUzPWoy7qmlQnzd/r7ZGEnd7tE/NaJHzsf6tfUX2XERDr8bGePOaZyYkLj2XysVn8fNvVBTUxoAkRva6pXRx9Kiol09Qthn7UvfKnNenmZerTr2a9MpCPuCXucxzrrmCB+Z2ZDfHbzs1g9LO+OIXyvxhjrFGUbqkx7JnQOdWbMr2Z+dLv5ujGFhIjr2hATKVcmLqiTypfAp2SW4OpsDI+uOBxVlSnjsGlLKiMUqxe9MUxaViYyfFnI8mXGM+Z8XBxdRmiwEwF/CQoKj6GgsBR1T79yZcIkyKwDn4zNVj9n5uxBXmkLul7EMN4RMG4/iHLexUQZrs/F0F6VvPKRVfUU4bluFIk9N04bME23mKx2i88lXZ+NTZBfUo8TP3oG5hRT9drBfxHuTbCr/24qWGkMyGabv9bPMjGVExMaq6HuK3EGBYfxv/xdiYxUbMCMr2aY7be+d/ShhJhQlPT1C2GbtS9Y7VXLeBwTzHU6rUyYy31t3PU6nPwsyqjCwWFclfXzMbFCNXAZ2/XbHEo+Lo2lWJlw4Ue3m68UEymPSirKj6gNxdDffDDlQCnAcSujQp9yz0Rit7AOoHoP/nv7PROZ/vsYi87ifG5yJq3/XrzKlBGKvOz+Mmbu1RiDqbmOVPeqf0m1Z+KZdrJF/FYo+IrefzF597Q6MSsZlWiNxNBZndhsqU58KZ5v4WaPNQtJNYDK2LztpwD8R3ONpW1hd+HvH5IGE60t7nFXy4k9EynipSiluPY6hkfNBYZ/RUab1/JK3bNRqIoJ+yOdU/eqVRvFbw7UD+Peb5XGU071wVy/3y/K2B0x1esRtoo/NzZUHzrEVNSRf3Ue4al25MeX/pWMI2icSj6Vki4/u8VURkwIm8U97+mHF4yVQLG8vfOnUhzJTzyMTnZlwsmHMvaks1+Itrn1HZm4y9ajlbNfmUhX3GVsdhtXZf284+wophbmcb3yEHbu2IuD57vR/zohJoQtMvyIcvzb2D7wuDIhng3wP0yN3kNFQJzuqMTxgu+ToBGTqFMZFfqJWXRYT3OUWzf9OZ/mEIPG8a5FzDhkrTJldODFKYGZVyHUnQrEd2mX4odtmkgRu+ifiN3vrZdxorwaZ1pnML7wFo3m0xxHOvBEP81Rpp/m+Bs3y7TTHIqSi1+G/sXUxAAunKlESeACLgaf4tH0ypUJYZOTPTJiQsbm7dXD6kbIW7VnccwfgL+mHfdnYxi8nnzMzS2mwl7ha7vTN+K7ghvzmH77Fu0ttepJlsqWp3gaWcbA9WJjFSS7WDy0Spwy0B5aVdM2g/HoX7hmOu2SffwPDC28Q/BqLUrLqlHdOo3QwhzqChInEWTqkWEjyyWmot2ZP15HX+Qj+jqacCJwFr90vsJk5AXO52krUqJMuvzsFlOZyVvYkyUeDrYQRVdLLUpPVKK87iEevfmErrN7jL4sIybcfChjTzr7hWib+HPqO24263U41SPE166D+gPTtNMco/eurHiAWrriLmOz27gq62cl8wBOP1jAtLjtGV3GaO81NA0kiwkZfsx+5PuNKSo8iQkBReb+i7g1/A6h+H1/6/1+tzIq9L1XcLTuqfGciduNiaN9Ongiw1SfM/E29XMmlC2VaJtbxr2L9o+xlSljXC+7AKeDLzE8v6yeHw9HtV3x4nuxxKyeyx+PIjT/D56Np3rOxBbsVZ8hsWA8Z+Kq5TkTvtxqtDyew8j8Z/VZHm21Rai8l1pMKA72yIgJKZszdqO4+Sn6XixhemEZE7Nvcb+zHvkpniXgFnfXePn2orixDz3Ti5iMfMb4zDRaG8uxy7TBT6yw7DvZoT1OO/7I7aaqn4xnOOixyD3ViWDonRoL8cjty+X7k1ZXpOqR4Udxj6kY6HeXtqJjVHsE+NDIE9T6Lc9sSJOf3WIqM3lrPtyCfaoP32Py7UeMTk7hZm1yH5QSEy4+lLUnXf1Cqi+72KzXofrJpg867RsQewj0R7sr6Yq7hM0y46qsnwXTW/ceRH7+bmxRduKMRUyo/cuFH7Mf+X4TiYlvGWwV+kd1xjL11147+9QAJiMhVJkeo2ytS6aM9Tf8vDHBt8aVbHiP83r04Ua1OV3jqrWfKMr3ODsYg34b0fo9P3vvR+vVhylXJr5lY6xZ9ddcW2QGJx98xssLWhQAACAASURBVHTfJeM4q7UemTLW3/Dz5ugYZMN7nNejDzeyzekYV/Xx77v9fuOWjf9sN/ojn9BRtcO4BaaX46v3frSefbhCTNTf7Me3/GsbX0Z45jkabzz6ptf9lm3ktb4tU/Q3/b3ZGUjnuPrbyOf4rd4Ypt8s4enIJJq/YLxezxMkbZcXSCvEBJ0n7zz6ir4iA2SADJABMmDznAk6hp2DDJABMkAGyAAZkGWAKxM8/8x7n2SADJABMkAGPDFAMUGAPAEkq1pZjhkOGSADZGDjMkAxQTFBMUEGyAAZIANkwBMDFBMEyBNAzDQ2bqbB2DK2ZIAMyDJAMUExQTFBBsgAGSADZMATAxQTBMgTQLKqleWY4ZABMkAGNi4DFBMUExQTZIAMkAEyQAY8MUAxQYA8AcRMY+NmGowtY0sGyIAsAxQTFBMUE2SADJABMkAGPDFAMUGAPAEkq1pZjhkOGSADZGDjMkAxQTFBMUEGyAAZIANkwBMDFBMEyBNAzDQ2bqbB2DK2ZIAMyDJAMUExQTFBBsgAGSADZMATAxQTBMgTQLKqleWY4ZABMkAGNi4DFBMUExQTZIAMkAEyQAY8MUAxQYA8AcRMY+NmGowtY0sGyIAsAxQTFBMUE2SADJABMkAGPDFAMUGAPAEkq1pZjhkOGSADZGDjMkAxQTFBMUEGyAAZIANkwBMDFBMEyBNAzDQ2bqbB2DK2ZIAMyDJAMUExQTFBBsgAGSADZMATAxQTBMgTQLKqleWY4ZABMkAGNi4DFBMUExQTZIAMkAEyQAY8MUAxQYA8AcRMY+NmGowtY0sGyIAsAxQTFBMUE2SADJABMkAGPDFAMUGAPAEkq1pZjhkOGSADZGDjMkAxQTFBMUEGyAAZIANkwBMDFBMEyBNAzDQ2bqbB2DK2ZIAMyDJAMUExQTFBBsgAGSADZMATAxQTBMgTQLKqleWY4ZABMkAGNi4DFBMUExQTZIAMkAEyQAY8MUAxQYA8AcRMY+NmGowtY0sGyIAsAxQTFBMUE2SADJABMkAGPDFAMUGAPAEkq1pZjhkOGSADZGDjMkAxQTFBMUEGyAAZIANkwBMDFBMEyBNAzDQ2bqbB2DK2ZIAMyDJAMUExQTFBBsgAGSADZMATAxQTBMgTQLKqleWY4ZABMkAGNi4DFBMUExQTZIAMkAEyQAY8MUAxQYA8AcRMY+NmGowtY0sGyIAsAxQTFBMUE2SADJABMkAGPDFAMUGAPAEkq1pZjhkOGSADZGDjMkAxQTFBMUEGyAAZIANkwBMDFBMEyBNAzDQ2bqbB2DK2ZIAMyDJAMUExQTFBBsgAGSADZMATAxQTBMgTQLKqleWY4ZABMkAGNi4DFBMUExQTZIAMkAEyQAY8MUAxQYA8AcRMY+NmGowtY0sGyIAsAxQTFBMUE2SADJABMkAGPDFAMUGAPAEkq1pZjhkOGSADZGDjMkAxQTFBMUEGyAAZIANkwBMDFBMEyBNAzDQ2bqbB2DK2ZIAMyDJAMUExQTFBBsgAGSADZMATAxQTBMgTQLKqleWY4ZABMkAGNi4DFBMUExQTZIAMkAEyQAY8MUAxQYA8AcRMY+NmGowtY0sGyIAsAxQTFBMUE2SADJABMkAGPDFAMUGAPAEkq1pZjhkOGSADZGDjMkAxQTFBMUEGyAAZIANkwBMDFBMEyBNAzDQ2bqbB2DK2ZIAMyDJAMUExQTFBBsgAGSADZMATAxQTBMgTQLKqleWY4ZABMkAGNi4DFBMUExQTZIAMkAEyQAY8MUAxQYA8AcRMY+NmGowtY0sGyIAsAxQTFBMUE2SADJABMkAGPDFAMUGAPAEkq1pZjhkOGSADZGDjMkAxQTFBMUEGyAAZIANkwBMDFBMEyBNAzDQ2bqbB2DK2ZIAMyDJAMUExQTFBBsgAGSADZMATAxQTBMgTQLKqleWY4ZABMkAGNi4DFBMUExQTZIAMkAEyQAY8MUAxQYA8AcRMY+NmGowtY0sGyIAsA5taTCjKDlQ++heTPeeQoygpJ1WZMrLOZrmN1THJhvd4rkcfriebFSUDmT4fMmzGN45J3hmmDzUfphQTx+58RLi/DltdAFSUnThy/iZOF+1MORELJ8uU+a+Coeyowx+RT/i9Yqu9/ZYyB25E8Pyv/zP+pu+etv3tt2iXrD2yMU2XzemIu6JsRV51EMHQe0y8/YSR0DiaqwuQbeJSUbZg38l2dI4tIDS/iMGxYTSczEeWqczOixNGvMyxaw0kBKRMPVbfyPBj/U26P6fDz+m26UvqWy0fyvQLmTKp2iJjs6JsQ1V/DKE7J794fEhnTHdVDyMUXUJn9d4kO7627an8wf9RkAgGPIqJA6ibiKG/6UASqGa4FMW9jLn8t3y/++IkZub64d+SmFSs17eWycktQbG/HMX+CjQOxfBfiwlZe769mPAe9+8CjzC68Df+uFGPn8vP4PSNEEaiH9Aa2G7wtqUoiKHoP+hpu4KywFmcbQsjFI2guSjbKLO7dgrhlwM4o8ZNxE77y9uRiLtMPW5sWL//Fp/Xcv+Sab+1f8n8RqaMTL+QKZPqWjI2exMT3vuObvfOqicYffMet6t2G/1BfPe1bdfr5SsFhJWBTSsmFGUfzg0tY7yzAj5TFmt2kFMZkcmefPjfiwndXjd71puYEO0J9CxjsrvGWIkQKxXl3Z8x03NOXXkQS7j+4GdM9V3CtngMRVZ3qu9/mAxWGku7u+umEZ78HXm2cZarR/e1eHViw1xutd+vZzHxLXzo1i+0WMr3ZVmb14qYcONPxj9udfB7CgvBgIOYaMaxy8MYeP0RoRez+L3+GL7TB+wfb2IgGku5dBwevordigJFoowwQJvkmlB06Qn6Zz8i9PIV2htKjMlBlFGU7Thc/xi94UVMLSxjcnYed1vPYm9mIrPUymXgp4ZpjL1ZRE/DEWMyEd9Z/5TcX9EX/YBrJb4V3+llncq4dUJFyca+ig50qcvv/2BobASNFcnL74qShT3lbegYjWB8fgnDEyG0rFjG92Ff4DbujEYRerOEkYkQrtYcMiZYw1YXcaP52T6moh45m51jIRt37Xr28RK+Ke9eRqjrFDJ17hQf/MElTHfXqAJQUfbil8EYBloKkmKY1zKH8GAzdsV/t6f+OcITt7BfcJnpM+pL+E6uHr28arsNPzIxLb27jPDDC8atmFQsuTEv62e3mCq+GrRH59DScB8Dcx/Q01iKomsvMPZnBLfP5ht9SLRL5Vm95fQRw2PPUHdib5IvlUA/wpF+VJV24H54CROvI+i+U4e8nOR+qvsxVf+Styc9/UKNpUvf0e11jvsOHLo8gL4XSwjNvsLti35UP0q+zeHmQ/mYurc989RA0vg8eONoUh/R25SKPf07vq6cN+gTe5/Yi4mp1+i8+yvKAtWovv0coeh73CjV9hYoOfkoLK+Ev7wBbc9jGLrbAL/6uRL+ojxsEYO2RBkRGHWSm3qFO8GrKAucwZnWaYxHF3GrbJsBf0ZREKPRd+hsOoeS0gqUXQyi5/UyHtTnG2VEXYriw9G2vzATXcazthNJA50Vgv1NrxCevYvDFkFiLudUxq0TZhXewdMFsfzeiBPCh20zCC1EcKVwi2Fz1uF2DCws4eHtJpSVn0blr2MYXniPW+WJZfzMwg4MLiyiu/Uyfi47g9O/TWEs+g7X/cn7PNzs0fxsH1PRbhmb3WIhG3eZeOX47+PZmz9xvSIPPsWH3SeC6H8bQcuxHNWHivIDzg+vvM2mxi0uasV19jW8RDjUg0vtsxiLLGPq9TzuXEkIVtl6ZNiQiamMmEiXn91iqk3ei+i5WYuy5jGMz83jVsNZnA6+RfhFEAfjgiyrqAtDC4txnmtQ3TaN8cifqDuYEOOamFjAQO9DnK2swolL99E3F8Nga0nK1b9U/UvWnnT1C41D+ZWJVDaLOnLKejEaXURP62WcCNTgXHAAvaFkMeHmQ9m+I9P2jJ0F8dt553F9IgaKCftJ0Nyv+f7r/WQvJp4HccinZRSKclDdGzHcWmJMhFondL+357YMq05y4S4cjE/qerYZ6ggY19p2PoTw6/s4Eh/Y1M77/QHkfv+dUUaHQMnIxvY9u7AlI3U2pNldgHrRwX47ZmRe+u/1V0VxLuM2eRe2vUd4qFldpdGuuRfnhmIYaSs1bNbKtBgZtFjGP/ngX0zdPWMIoZ3+q2isL8cOIzvPxYWRGEZb/UY9Wv3OA6LqZ5eYytgsGwu3uBt+doiXEId7T3ZjIPIJQxMLmIzM4Xog1/CNWQRkHG7FwNwc6g5nwComfmicRTjyGf3ByzheEkDFtRBGhTj+OS6OTaLEqR7DZgc2ZGIqIybS5We3mGqT9we0FIkE4AKC0XGc+k6BUhzEWPQJfo73y6KOJYQHm7DT4FBbzTGPCaqYiM6j7kCGwWZe858IvwyiwNR3NV5T9y9Ze9LVL2T6jkzci1X/JFbDlMxiNIeTxYSMDzV7nMdV2bZrdWmCm2Li6ydJPf58dfahvZh4XJ+4raFko0LsDwhWGYOEDPQyZdRJ7nHyyZHjnZ8Q7r1oLOVnHO7AUHQR3W1NKC8txg87Etn91wQ441A7BqMRXD6UGPSs9biVcRITYmlZ+Guy61SSv453fUL44cX4/f5sVPTGMNFZkVTGaof+OcO3Bdk5W5GdswNVvSv3ajjZI+rQ/GwfUxmbRT2ysZAVE3r7Ur0qOcWoffIeo8N9uFR7A7dGP2DkyU0cjC+bJ4mJgpvom53FpYMrxcT2o7W4UH8GuYY41ibC8dtlqu9l69FttGND9aFETGXERDr8LBNTbfL+G02Fmpjoio7gZI4CpbATI9GnOOFT1NtfgtXQnco4g4LDrfDfWUL4wXlj1UETE4Moi/tZ+Mvnb8fDZ+0otIh7Wx+qt12c7dHjIF699gtRh1vf0a9na7OSs6Ivi9tUpx8nxITOhpsPNXucxYRhj8uYoNVFMaH7i6/OYsCrf+zFhOloqF1nk5kw3Mqok5zpWqJB6v96LxliQj8i2DX2HlPRGMILnzD4uANFu+1XH+wcIzbtHfptAeGJNscNee5l7FcChL2n1ME3+ViYuV12Zax2Z/14ATeH/sJEJHmPivUUiV2M9PqsfraWt7PHbLOoSzYWbnHX7bJ7FYNvccc7hB43YI8uAnz7UTPwEcMdAe1WmmlFwVyPdWXC/J3+PlnYyd0uEb914sfOh/o19VcZMZEOP9vZY46pnJjQeDYfq9Xfh839VOyZiAsQva2pXh19KCkm0tUvhH3WvvDFNqfo79YNmHosdL+ZX80+1OxxFhOybdfqophIFU/+L/3CYm2IiZQrExfUCcMa9MycPcgrbUHXixjGOwLGkre1nN1nJbMEV2djeHTF4TirTBmHTVtSGaFYveiNYdKyMpHhy0KWLzOeMefj4ugyQoOdCPhLUFB4DAWFpah7+pUrEybRZh1AZWy2+tQpFt7FRBmuz8XQXpW8CpVV9RThuW4UiX05ThswTbeYrHaLzyVdn41NkF9SjxM/evbpFFP12sF/Ee5N8K3/bipYmXKV6mv9LBNTOTGhsRrqvhJnUHAY/8vfZdwq1FYmtNWMVD7X/+foQwkxoSjp6xfCJmtf0O00vzra/CUrEy4+1OyxFxNf0natLooJcxz5Pv0iQvepRzHxI2pDMfQ3H0w5CGowO5dRs6SUeybKjTq3/RSA/2iusZwq6i38/QPCA5ex3XovVtyD/95+z0Sm/z7GorM4n2u/qiFTRtzPL7u/jJl7NcZgqjtVtS/FnolfUu2ZeKadftF8tRUVvf9i8u5pVSQpGZVojcTQWZ3YbKlOfCmeb+Fmj9vKhKzNsrFQFOe4675S97ikiJeilOLa6xgeNRcY/hUZbV7LK3X/TKEqJuyPdE7dq1Z5Eb85UD+Me79VGk851W9r6Pf7RRm7I6Z6Pbq9bmyoexQcYirqyb86j/BUO/LjS/9KxhE0TiWfSkmXn1PtmTBzKCMmhM3ifv/0wwum1cJM7PypFEfyEw+skxUTTj6UsSed/UK0za3viDJONovvj4lbPqYTRHZ7Jtx8qNlj33e+pO1aXW5iwnkcE3Xwjz6QYcCjmBDn/v+HqdF7qAiI0x2VOF7wfRJ8YnnPqYw6yU3MosN6mqM8sblye/WwuvnuVu1ZHPMH4K9px/3ZGAavJx93EoOC02kO8f3xrkXMOGStMmV0x4pTAjOvQqg7FYjvnC7FD9s0kSJ20T8Ru9/F7u7yapxpncH4wls0mk9zHOnAE/00R5l+muNv3CzTTnMoSi5+GfoXUxMDuHCmEiWBC7gYfIpH0ytXJoRNTvbIiAkZm+Vj4Rx3Ya9TvMR3BTfmMf32LdpbatWTLJUtT/E0soyB68XGilR2sXholThloD20qqZtBuPRv3DNdNol+/gfGFp4h+DVWpSWVaO6dRqhhTnUFSROIsjUI8NGlktMRbszf7yOvshH9HU04UTgLH7pfIXJyAucz9NWpESZdPnZLaYyk7ewJ0s8HGwhiq6WWpSeqER53UM8evMJXWf3GP1dRky4+VDGnnT2C9E28efUd9xsFr/PKXuEMbGvS5y6Uk9zDGPAsgFTxoeiLqcxU6btipKJXQf1h7NppzlG711J+bA2t7aL7/lHH8gw4ElMiAtk7r+IW8PvEIrf07fey3cro05yvVdwtO6p8ZyJ242JY3vi90rGbhQ3P1XPcE8vLGNi9i3ud9Yj33J+XWSY6nMm3qZ+zoSypRJtc8u4dzH50bJmR8mU0csr2QU4HXyJ4fll9Ux3OKrtildt1p8zMR5FaP4fPBtP9ZyJLdirPkNiwXjOxFXLcyZ8udVoeTyHkfnP6vM+2mqLUHkvtZhwskdGTIhlcfVZAk42S8ZC+MCNDdd4+faiuLEPPdOLmIx8xvjMNFoby7HLtMFPLFHvO9mhPU47/sjtpqqfjGc46LHIPdWJYOidGgvxyO3L5fuTVrqk6pHhR3GPqZicdpe2omNUewT40MgT1Potz2xIk5/dYiozeWs+3IJ9qg/fY/LtR4xOTuFmraWfSuyZcOtfsvakq1+Itqntc+rLUnHficMNT/Do5RImXs3hTn0Av1gep60y5uJD3R6nvuPWdqf9GWKvhvkx8m5t1+3hKwWFGwMpxYTbj9L5vTrJPaozlqDTWbe1ruxTA5iMhFBleozy15Sx/oafN0dHk+GHLDizsB59uB5tJofOHNI/6ffP2hATpo2BqxVkodZPPviM6b5LxpFX67Vkylh/w8/ph3It+pRseI/zevTherR5LfYf2uS9/6x1H64QE/U3+/Et/9rGlxGeeY7GG4++6XW/ZRt5rW/LFP1Nf5MB7wys9cmL9q0tgbJCTDBAaytAjAfjQQbIABkgA2udAYoJ7lbmbm0yQAbIABkgA54YoJggQJ4AWutqmfYxoyMDZIAMrD4DFBMUExQTZIAMkAEyQAY8MUAxQYA8AUTFv/qKnz6mj8kAGVjrDFBMUExQTJABMkAGyAAZ8MQAxQQB8gTQWlfLtI8ZHRkgA2Rg9RmgmKCYoJggA2SADJABMuCJAYoJAuQJICr+1Vf89DF9TAbIwFpngGKCYoJiggyQATJABsiAJwYoJgiQJ4DWulqmfczoyAAZIAOrzwDFBMUExQQZIANkgAyQAU8MUEwQIE8AUfGvvuKnj+ljMkAG1joDFBMUExQTZIAMkAEyQAY8MUAxQYA8AbTW1TLtY0ZHBsgAGVh9BigmKCYoJsgAGSADZIAMeGKAYoIAeQKIin/1FT99TB+TATKw1hmgmKCYoJggA2SADJABMuCJAYoJAuQJoLWulmkfMzoyQAbIwOozQDFBMUExQQbIABkgA2TAEwMUEwTIE0BU/Kuv+Olj+pgMkIG1zgDFBMUExQQZIANkgAyQAU8MUEwQIE8ArXW1TPuY0ZEBMkAGVp8BigmKCYoJMkAGyAAZIAOeGKCYIECeAKLiX33FTx/Tx2SADKx1BigmKCYoJsgAGSADZIAMeGKAYoIAeQJoratl2seMjgyQATKw+gxQTFBMUEyQATJABsgAGfDEAMUEAfIEEBX/6it++pg+JgNkYK0zQDFBMUExQQbIABkgA2TAEwMUEwTIE0BrXS3TPmZ0ZIAMkIHVZ4BigmKCYoIMkAEyQAbIgCcGKCYIkCeAqPhXX/HTx/QxGSADa50BigmKCYoJMkAGyAAZIAOeGKCYIECeAFrrapn2MaMjA2SADKw+AxQTFBMUE2SADJABMkAGPDFAMUGAPAFExb/6ip8+po/JABlY6wxQTFBMUEyQATJABsgAGfDEAMUEAfIE0FpXy7SPGR0ZIANkYPUZoJigmKCYIANkgAyQATLgiQGKCQLkCSAq/tVX/PQxfUwGyMBaZ4BigmKCYoIMkAEyQAbIgCcGKCYIkCeA1rpapn3M6MgAGSADq88AxQTFBMUEGSADZIAMkAFPDFBMECBPAFHxr77ip4/pYzJABtY6AxQTFBMUE2SADJABMkAGPDFAMUGAPAG01tUy7WNGRwbIABlYfQYoJigmKCbIABkgA2SADHhigGKCAHkCiIp/9RU/fUwfkwEysNYZoJigmKCYIANkgAyQATLgiQGKCQLkCaC1rpZpHzM6MkAGyMDqM0AxQTFBMUEGyAAZIANkwBMDFBMEyBNAVPyrr/jpY/qYDJCBtc4AxQTFBMUEGSADZIAMkAFPDFBMECBPAK11tUz7mNGRATJABlafAYoJigmKCTJABsgAGSADnhigmCBAngCi4l99xU8f08dkgAysdQYoJigmKCbIABkgA2SADHhigGKCAHkCaK2rZdrHjI4MkAEysPoMUExQTFBMkAEyQAbIABnwxADFBAHyBBAV/+orfvqYPiYDZGCtM0AxQTFBMUEGyAAZIANkwBMDFBMEyBNAa10t0z5mdGSADJCB1WeAYoJigmKCDJABMkAGyIAnBigmCJAngKj4V1/x08f0MRkgA2udAYoJigmKCTJABsgAGSADnhigmCBAngBa62qZ9jGjIwNkgAysPgMUExQTFBNkgAyQATJABjwxQDFBgDwBRMW/+oqfPqaPyQAZWOsMUExQTFBMkAEyQAbIABnwxADFBAHyBNBaV8u0jxkdGSADZGD1GaCYoJigmCADZIAMkAEy4IkBigkC5AkgKv7VV/z0MX1MBsjAWmeAYoJigmKCDJABMkAGyIAnBja1mFCUHah89C8me84hR1FSOlKmzFpXjLRvdbIasuHdr+vRh+vJZkXJQKbPhwyb8Y1jg3eG6UPNhynFxLE7HxHur8NWFwAVZSeOnL+J00U7U07EwskyZf6rYCg76vBH5BN+r9hqb7+lzIEbETz/6/+Mv+m7p21/+y3aJWuPbEzTZXM64q4oW5FXHUQw9B4Tbz9hJDSO5uoCZJu4VJQt2HeyHZ1jCwjNL2JwbBgNJ/ORZSqz8+KEES9z7FoDCQEpU4/VNzL8WH+T7s/p8HO6bfqS+lbLhzL9QqZMqrasls2pruX0P2V7CWp75zD2dlnlOxx9hvKsBNPit7uqhxGKLqGzeu9/Ok45tcPLd4qyDVX9MYTunNyQ7fPim2/9W49i4gDqJmLobzpgG0hFcS/zrRutX2/3xUnMzPXDvyW5A+rfi1drmZzcEhT7y1Hsr0DjUAz/tZiQtefbiwnvcf8u8AijC3/jjxv1+Ln8DE7fCGEk+gGtge0Gb1uKghiK/oOetisoC5zF2bYwQtEImouyjTK7a6cQfjmAM2rcROy0v7wdibjL1GPmIhUb1u+/xee13L9k2m/tXzK/kSkj0y9kyqS61mrZnOpaTv/76dpbhJ8/wdkynenD2JGRYFr8dmfVE4y+eY/bVbuN/uBU53r7jmJi7aysbFoxoSj7cG5oGeOdFfCZslhzZ3IqIzLZkw//ezGh2+tmz3oTE6I9gZ5lTHbXGCsRYqWivPszZnrOqSsPYgnXH/yMqb5L2BaPocjUT/X9D5PBSmNpd3fdNMKTvyPPNs5y9ei+Fq9ObJjLrfb79SwmvoUP3fqFFkv5vvwtbJZhRlF8CPSI8efMhhQJMj7QYseVCVlfrXY5BzHRjGOXhzHw+iNCL2bxe/0xfKcP2D/exEA0lnLpODx8FbsVBYpEGdE4bZJrQtGlJ+if/YjQy1dobygxJgcNmO04XP8YveFFTC0sY3J2Hndbz2JvZrIKF5PLTw3TGHuziJ6GI8ZkksqJSu6v6It+wLUSn21ndCrjNkgpSjb2VXSgS11+/wdDYyNorEhefleULOwpb0PHaATj80sYngihZcUyvg/7ArdxZzSK0JsljEyEcLXmkDHB6m1zs0fzs31MNT/L2OwcC9m4a9ezj5fwTXn3MkJdp5Cpc6f44A8uYbq7RhWAirIXvwzGMNBSkBTDvJY5hAebsSv+uz31zxGeuIX9gstMn1Ffwndy9ejlVdtt+JGJaendZYQfXjBuxaSKnaKkx89uHCq+GrRH59DScB8Dcx/Q01iKomsvMPZnBLfP5ht9SLRL5Vm95fQRw2PPUHdib5IvlUA/wpF+VJV24H54CROvI+i+U4e8nOR+qvsxVf+Styc9/UKN5RckBqls1uqQ6cvu/cutnyoZPmTlbEV2zg5U9cYwfe8XZKufxf+2GPHIPDWQND4P3jia1EdUm13iJRsLPZ5Or24cytijllF24NDlAfS9WEJo9hVuX/Sj+lHybY7VYNWpbfzObc/E1Gt03v0VZYFqVN9+jlD0PW6UansLlJx8FJZXwl/egLbnMQzdbYBf/VwJf1EetohBW6KMCILaeaZe4U7wKsoCZ3CmdRrj0UXcKttmwJ9RFMRo9B06m86hpLQCZReD6Hm9jAf1+UYZDTQfjrb9hZnoMp61nTA6Vqpg7296hfDsXRy2CBJzWacyqSYA82+zCu/g6YJYfm/ECeHDthmEFiK4UrjFsDnrcDsGFpbw8HYTyspPo/LXMQwvvMet8sQyfmZhBwYXFtHdehk/HxX+MwAAIABJREFUl53B6d+mMBZ9h+v+5H0ebvZofraPqbBdxma3WMjGXVxPZFdO8crx38ezN3/iekUefIoPu08E0f82gpZjOaoPFeUHnB9eeZtNjVtc1Irr7Gt4iXCoB5faZzEWWcbU63ncuZIQrLL1mONrx4ZMTGXERLr87BZTbcJYRM/NWpQ1j2F8bh63Gs7idPAtwi+COBgXZFlFXRhaWIzzXIPqtmmMR/5E3cGEGNfExAIGeh/ibGUVTly6j765GAZbS1Ku/qXyoaw96eoXGofyKxOpbBZ1yMTdLRainuTxMMXYu/My7tslcqY9Exk7C+K3887j+kQM9mLCPl6ysTD3C7v3Mm2X4SenrBej0UX0tF7GiUANzgUH0BtKFhOrwapdu/j/xG0W+5WJ50Ec8mkZhaIcVPdGDLeWGBOhcKLMEqtbGbXzhLtwMD6p69lmqCNgXGvb+RDCr+/jSHxgE9fO+f4Acr//ziijB1XJyMb2PbuwxXLvUP9es7sA9aKD/XbMyLzM38uUcZu8C9veIzzUrK7SaPXtxbmhGEbaSg2btTItRgYtlvFPPvgXU3fPGEJop/8qGuvLscPIznNxYSSG0Va/UY9Wv/OAqPrZJaYyNsvGwi3uur+d4iXExt6T3RiIfMLQxAImI3O4Hsg1fGMWARmHWzEwN4e6wxmwiokfGmcRjnxGf/AyjpcEUHEthFEhjn+Oi2OTKHGqx7BZsedHJqYyYiJdfnaLqTZhfEBLkUgALiAYHcep7xQoxUGMRZ/g53i/LOpYQniwCTsNDrXVHPOYoE4G0XnUHcgw2Mxr/hPhl0EUmPquxmtqH8rak65+IdN30hV3t1iI62jjYRAFxnh4AHWhGHQ/K5m7sb/wGAoKS1H3NIbp/msoUD+L//2E7ZZxT+8jtmLCIV6ysRArwr5ssTJi+stOPkEi03YZfopVDhOrjkpmMZrDyWIi3azq8edrQjik8oW9mHhcn7itoWSjQuwPCFYZg4SoTGbCcCujdp7HySdHjnd+Qrj3orGUn3G4A0PRRXS3NaG8tBg/7Ehk96ka5fa/jEPtGIxGcPlQYtCz/satjJOYEEt6wl+TXaeS/HW86xPCDy/G7/dno6I3honOiqQyVjv0zxm+LfHOGl/etJwicbJH1KH52T6mMjaLemRj4RZ3vV1Or0pOMWqfvMfocB8u1d7ArdEPGHlyEwfjy+b6QCk2AGcU3ETf7CwuHVwpJrYfrcWF+jPINcSxNhGO3y5TfS9bj26rHRuqDyViKiMm0uFnmZhqE8bfaCrUxERXdAQncxQohZ0YiT7FCZ8CvV2hO5VJE4b/zhLCD84bqw7aZDCIsrifhb98/nY8fNaOQsskZ+tD9baLsz16HMSr134h6nDrO/r1bG0W/d0l7jKxENdx66e6LbI262zbiwn7eMmwofnvGFpmk297h2cTAlK27W78KErOCj+L24GnHyfExGqwqvucr18rJkxHQ+3AlZkw3Mqoncd0LREw9X+9lwwxoR8R7Bp7j6loDOGFTxh83IGi3anvxToFXajoQ78tIDzR5rghz72M/UqAsPdUbwJw3R5zu+zK6GX116wfL+Dm0F+YiCR3VuspErsY6fVY/Wwtb2eP2WZRl2ws3OKu22X3KgaF4o53CD1uwB5dBPj2o2bgI4Y7AtqtNNOKgrke68qE+Tv9fbKwk7tdIn7rxI+dD/Vr6q8yYiIdfrazxxxTmQlDr8d8rFZ/Hzb3U3EPPi5A9LamenX0oaSYSFe/EPZZ+8IX22zT38316D60HmE0x0KUd+unep0yNouy7mJCE4x6veZXGTa0a2zFnkNiZcT0dyjXeHaPbNs1MeFgTwo/W09z6NfS+TS/fg2rZn/w/XoQEylXJi6oE4Y1gJk5e5BX2oKuFzGMdwSMJW9rObvPSmYJrs7G8OiKw3FWmTIOm7ZklLiuoCctKxMZvixk+TLjGXM+Lo4uIzTYiYC/JN5Z48ubX7MyYRJt1sFIxmarT51i4V1MlOH6XAztVcmrUFlVTxGe60aR2JfjtAHTdIvJarf4XNL12dgE+SX1OPEjE1P12sF/Ee5N8K3/bipYmXKV6mv9LBNTmQlDty/UfSV5whCTR/4u41ah22Sgx8HRhxJiQlHS1y+ETda+oNtpfnW0Ob4y4dyX3VcrxfXWo5gw+ynVexkOxe/c+PmilYk0sZqqPfxfalFhf5vDYeLRnakoP6I2FEN/88GUg6AKiEsZtfOk3DNRbtS57acA/EdzjeVUUW/h7x8QHriM7dZ7sWLPxPf2eyYy/fcxFp3F+Vz7VQ2ZMuJ+ftn9ZczcqzEGU90vqn0p9kz8kmrPxDPt9Ivmq62o6P0Xk3dPqyJJyahEaySGzurEZkt14kvxfAs3e2QGqVT3Na02y8ZChg21zTbxUpRSXHsdw6PmAsO/IqPNa3ml7p8pVMWE/ZHOqXvVKi/iNwfqh3Hvt0pTpqStRBj3oR2OmOr16LF1Y0P1oUNMRT35V+cRnmpHfnzpX8k4gsap5FMp6fKzW0xlxISwWdyHnn54wbRamImdP5XiSH7igXVuk4GMD2XsSWe/EDa59R1RJh1xd4uFuI5MP9Vstl8ZFd/rf99iZUK/ltOrTNtl+Dkmbq2ZTmrZ7ZlIF6tObeJ3Cc6ELzyKCXHu/3+YGr2HioA43VGJ4wXfGyCLC4hlJ6cyaueZmEWH9TRHeWJz5fbqYXXz3a3aszjmD8Bf0477szEMXk8+7iQGBafTAeL7412LmHHIWmXK6BCJUwIzr0KoOxWI75wuxQ/bNJEidi8/Ebvfxa7j8mqcaZ3B+MJbNJpPcxzpwBP9NEeZfprjb9ws005zKEoufhn6F1MTA7hwphIlgQu4GHyKR9Opn2/hZI/MICVjs3wsnOOusWEfLxGHghvzmH77Fu0ttepJlsqWp3gaWcbA9WJjRSq7WDy0Spwy0B5aVdM2g/HoX7hmOu2SffwPDC28Q/BqLUrLqlHdOo3QwhzqChInEWTqkWEjyyWmot2ZP15HX+Qj+jqacCJwFr90vsJk5AXO52krUqJMuvzsFlOZyVvYkyUeDrYQRVdLLUpPVKK87iEevfmErrN7jP4uMxm4+VDGnnT2C9E28efUd9xsVv0jEXe3WIh6ZPqpKOe0mqIomdh1UH+QlXaaY/TelRUPa3OLl0wshC0yfzJtd7NHXCen7BHGxP45cbpNPc0xjAHLBsx0sSrTLpZJxN+TmBCOzNx/EbeG3yEUv6dvvZfvVkbtPL1XcLTuqfGciduNiWN74vdKxm4UNz9VzxZPLyxjYvYt7nfWI99yfl1koepzJt6mfs6EsqUSbXPLuHfR/tGyMmV0gJTsApwOvsTwvP44W21XvGqz/pyJ8ShC8//g2Xiq50xswV71GRILxnMmrlqeM+HLrUbL4zmMzH9Wn/fRVluEynupxYSTPTKDlFiOVJ8l4GSzZCzc4q75yCVevr0obuxDz/QiJiOfMT4zjdbGcuwybfATg+q+kx3a47Tjj9xuqvrJeIaDHovcU50Iht6psRCP3L5cvj9ppUuqHhl+FPeYislpd2krOka1R4APjTxBrd/yzIY0+dktprIThuof1YfvMfn2I0Ynp3Cz1tJPJfZMuPUvWXvS1S8EHyojTn05bXF3718y/VRj2n5lwmnfgNhDoD9G3m3ylo2F7kOnVzcO1TbJ8KPsxOGGJ3j0cgkTr+Zwpz6AXyyP004Xq07t4XcJEaH7IqWY0L/8Fq9q53lUZyxBr+Y1s08NYDISQpXpMcrW68mUsf6Gn1eCtRF9Qja8x3k9+nA92rwR+x/b5L3/raYP14aYMO3PWK3GCrV+8sFnTPddMo68Wq8lU8b6G35e24CnKz5kw3uc16MP16PN6WKe9XhnfjP5cIWYqL/Zj2/51za+jPDMczTeePRNr/st28hrfVum6G/6mwyQAS8MbCYRkK62rhAT6aqY9VDVkgEyQAbIABnYHAxQTEjuRmaH2BwdgnFmnMkAGSADX84AxQTFhNTRLnauL+9c9Bl9RgbIwGZhgGKCYoJiggyQATJABsiAJwYoJgiQJ4A2i+pmO5lhkgEyQAbsGaCYoJigmCADZIAMkAEy4IkBigkC5AkgKnV7pU7f0DdkgAxsFgYoJigmKCbIABkgA2SADHhigGKCAHkCaLOobraTGSYZIANkwJ4BigmKCYoJMkAGyAAZIAOeGKCYIECeAKJSt1fq9A19QwbIwGZhgGKCYoJiggyQATJABsiAJwYoJgiQJ4A2i+pmO5lhkgEyQAbsGaCYoJigmCADZIAMkAEy4IkBigkC5AkgKnV7pU7f0DdkgAxsFgYoJigmKCbIABkgA2SADHhigGKCAHkCaLOobraTGSYZIANkwJ4BigmKCYoJMkAGyAAZIAOeGKCYIECeAKJSt1fq9A19QwbIwGZhgGKCYoJiggyQATJABsiAJwYoJgiQJ4A2i+pmO5lhkgEyQAbsGaCYoJigmCADZIAMkAEy4IkBigkC5AkgKnV7pU7f0DdkgAxsFgYoJigmKCbIABkgA2SADHhigGKCAHkCaLOobraTGSYZIANkwJ4BigmKCYoJMkAGyAAZIAOeGKCYIECeAKJSt1fq9A19QwbIwGZhgGKCYoJiggyQATJABsiAJwYoJgiQJ4A2i+pmO5lhkgEyQAbsGaCYoJigmCADZIAMkAEy4IkBigkC5AkgKnV7pU7f0DdkgAxsFgYoJigmKCbIABkgA2SADHhigGKCAHkCaLOobraTGSYZIANkwJ4BigmKCYoJMkAGyAAZIAOeGKCYIECeAKJSt1fq9A19QwbIwGZhgGKCYoJiggyQATJABsiAJwYoJgiQJ4A2i+pmO5lhkgEyQAbsGaCYoJigmCADZIAMkAEy4IkBigkC5AkgKnV7pU7f0DdkgAxsFgYoJigmKCbIABkgA2SADHhigGKCAHkCaLOobraTGSYZIANkwJ4BigmKCYoJMkAGyAAZIAOeGKCYIECeAKJSt1fq9A19QwbIwGZhgGKCYoJiggyQATJABsiAJwYoJgiQJ4A2i+pmO5lhkgEyQAbsGaCYoJigmCADZIAMkAEy4IkBigkC5AkgKnV7pU7f0DdkgAxsFgYoJigmKCbIABkgA2SADHhigGKCAHkCaLOobraTGSYZIANkwJ4BigmKCYoJMkAGyAAZIAOeGKCYIECeAKJSt1fq9A19QwbIwGZhgGKCYoJiggyQATJABsiAJwYoJgiQJ4A2i+pmO5lhkgEyQAbsGaCYoJigmCADZIAMkAEy4IkBigkC5AkgKnV7pU7f0DdkgAxsFgYoJigmKCbIABkgA2SADHhigGKCAHkCaLOobraTGSYZIANkwJ4BigmKCYoJMkAGyAAZIAOeGKCYIECeAKJSt1fq9A19QwbIwGZhgGKCYoJiggyQATJABsiAJwYoJgiQJ4A2i+pmO5lhkgEyQAbsGaCYoJigmCADZIAMkAEy4IkBigkC5AkgKnV7pU7f0DdkgAxsFgYoJigmKCbIABkgA2SADHhigGKCAHkCaLOobraTGSYZIANkwJ4BigmKCYoJMkAGyAAZIAOeGKCYIECeAKJSt1fq9A19QwbIwGZhgGKCYoJiggyQATJABsiAJwYoJgiQJ4A2i+pmO5lhkgEyQAbsGaCYoJigmCADZIAMkAEy4IkBigkC5AkgKnV7pU7f0DdkgAxsFgYoJigmKCbIABkgA2SADHhigGKCAHkCaLOobraTGSYZIANkwJ4BigmKCYoJMkAGyAAZIAOeGNiwYkJRdqDy0b+Y7DmHHEVJ6SSZMlSi9kp0I/uGbHiP+3r04Vqzea3Z49TnFSUDmT4fMmzGW6ff8jvv/e2/9mFKMXHszkeE++uw1QUKRdmJI+dv4nTRzpSTtWicTJnVcIKyow5/RD7h94qt9rZZyhy4EcHzv/7P+Ju+e9r2t6ths7VOWXtk42Wt/2s/pyOmirIVedVBBEPvMfH2E0ZC42iuLkC2iTlF2YJ9J9vRObaA0PwiBseG0XAyH1mmMjsvThjxMseuNZAQkDL1WH0hw4/1N+n+nA4/p9umL6lvtXwo0y9kyqRqy2rZnOpaMv9bTXvSPW7sqh5GKLqEzuq9KcfNtcyzomxDVX8MoTsnU9ouE6vNXsajmDiAuokY+psO2AZAUdzLrEYQdl+cxMxcP/xbEpOK9TrWMjm5JSj2l6PYX4HGoRj+azEha0+6BwWrn6yf0xHT7wKPMLrwN/64UY+fy8/g9I0QRqIf0BrYbrC0pSiIoeg/6Gm7grLAWZxtCyMUjaC5KNsos7t2CuGXAzijxk3ETvvL25GIu0w91jZa2bB+/y0+p8PP38JOu2uslg9l+oVMmVR2r5bNqa4l87/VtCfd48bOqicYffMet6t2G/3T3Ma1zDPFhPeVkQ0pJhRlH84NLWO8swI+UxabDLZ9GZHJnnz434sJ3V43e9I9KOjXtXv1OiiI9gR6ljHZXWOsRIiVivLuz5jpOaeuPIglU3/wM6b6LmFbPIYisznV9z9MBiuNpdTdddMIT/6OPNs4y9VjbqsMP+byq/Xeq59Xyy6Zer+FD936hbBTpozenm9hs34tmdfVtkcdNx7V2d4GlrHxS8qsZZ4pJlZVTDTj2OVhDLz+iNCLWfxefwzf6YP6jzcxEI2lXF4OD1/FbkWBIlFGgKhNhE0ouvQE/bMfEXr5Cu0NJcYEosMqJpefGqYx9mYRPQ1HjMlE/978quT+ir7oB1wr8aVUyKKsUxm3AUhRsrGvogNd6vL7PxgaG0FjRfLyu6JkYU95GzpGIxifX8LwRAgtK5bxfdgXuI07o1GE3ixhZCKEqzWHjAlWb5ObPZoP7eOltlfK5u04XP8YveFFTC0sY3J2Hndbz2Jvppbly8ZUu559vIRvyruXEeo6hUydKcUHf3AJ0901qgBUlL34ZTCGgZaCpBjmtcwhPNiMXfHf7al/jvDELewXzGX6jPoSvpOrRy+v2m7Dj0xMS+8uI/zwgnErJlXsFCU9fnbjUPHVoD06h5aG+xiY+4CexlIUXXuBsT8juH023+hDol0qz+otp48YHnuGuhN7k3ypBPoRjvSjqrQD98NLmHgdQfedOuTlJFaA3Hwob096+oUayy9IDOzGBEVxt0dmHJMp4+ZDrU3O/IgyMhyq9vQ14og+9r6Yxe3Lx4yxVzZemacGkuaCwRtHk/rsl4wb5vaneu/GvOofCVbFXpRDlwfQ92IJodlXuH3Rj+pHybc5VqNfpGrTRvmf/crE1Gt03v0VZYFqVN9+jlD0PW6UavsPlJx8FJZXwl/egLbnMQzdbYBf/VwJf1EetoiBXaKMcKIK9NQr3AleRVngDM60TmM8uohbZduSgVR8ONr2F2aiy3jWdiJpoLMGY3/TK4Rn7+JwfBK0fi8+O5VJNQGY68gqvIOnC2L5vREnhH/aZhBaiOBK4RbD5qzD7RhYWMLD200oKz+Nyl/HMLzwHrfKE8v4mYUdGFxYRHfrZfxcdganf5vCWPQdrvuT93m42aP50D5ewnYZmzOKghiNvkNn0zmUlFag7GIQPa+X8aA+X22XbEzF9cQA7BSvHP99PHvzJ65X5MGn+LD7RBD9byNoOZajXUv5AeeHV95CU+MWF6ziOvsaXiIc6sGl9lmMRZYx9Xoed64kxKgiWY85vnZsyMRUZhBPl5/dYqpNBovouVmLsuYxjM/N41bDWZwOvkX4RRAH44Isq6gLQwuLcZ5rUN02jfHIn6g7mBDjmphYwEDvQ5ytrMKJS/fRNxfDYGtJytW/VD6UtSdd/ULjUH6VMZXNog4Ze2TGMZkyMhy68SPqkOFQtSf0ErfVsbca1a3TCEU/4Ley77Q+qIpRd34ydhbEby+ex/WJGFaICcm5wNx2u/duzIvfybCaU9aL0egielov40SgBueCA+gNJYuJ1egXdu3aCP+3FxPPgzjki2ekykF1b8Rwa4kxWapBk9gP4ba0pQId7sJBPfuNZ6ShjkDStdTrZWRj+55d2JKROhvSbCpAvQD6t2NG5mUNlKI4l3GbvAvb3iM81KyuwGjX3ItzQzGMtJUaNmtlWowMWizjn3zwL6bunjGE0E7/VTTWl2OHkZ3n4sJIDKOtfqMerX7nAVH1oUu8ZGzedj6E8Ov7OBK3R1w75/sDyP1eG1x0P7rF1CjnEC8hNvae7MZA5BOGJhYwGZnD9UCu4RuzCMg43IqBuTnUHc7QRKBJTPzQOItw5DP6g5dxvCSAimshjArh+3Nc+JrEhFM9hs0ObMjEVGYQT5ef3WKqTd4f0FIkxP0FBKPjOPWdAqU4iLHoE/wc73NFHUsIDzZhp8Ghtppj7u/qAB2dR92BDIPNvOY/EX4ZRIGJF+FHu/4la0+6+oVmi3PfkYm7jD0y45hMGRl7ZPiR4TCVPWIcC3WUqzGWjVfCZi0BsIqJxPfO++fE6rMveyuyc0x/2cmnQ9yYF9eSYbVYZT6xwqlkFqM5nCwm0t0vdD9s1Fd7MfG4PnFbQ8lGhdhDEKwyBhI1aOkSE4+TT44c7/yEcO/FFcv9MkHIONSOwWgElw8lBj3r79zKOIkJscwmfDHZdSrJF8e7PiH88GL8fn82KnpjmOisSCpjtUP/nOHbEu9AO1DVu3KvhpM9og51UHCIl4zNop6Mwx0Yii6iu60J5aXF+GFHYqVFt1W8yooJ82+s75WcYtQ+eY/R4T5cqr2BW6MfMPLkJg7Gl82TxETBTfTNzuLSwZViYvvRWlyoP4NcQ/hqE+H47TJtQDSLCYd6dPvs2FB9KBFTmUE8HX6Wiak2GfyNpkJNTHRFR3AyR4FS2ImR6FOc8CnQ2xW6U5k0iPvvLCH84Lyx6qAN0IMoi/tZ+Mvnb8fDZ+0otIh7Wx+qma6zPXocxKvXfiHqcOs7+vXsbNa/d7NH64PO45hMGf16TvbI8CPDYUp7xDjWe0FbXf7CeOl99uvFxDG0zCbfPg/PJsSqDPPCf26sKkrOivFZ3Ho8/TghJlajX+ix3aiv9mLCdDTUrkPKTCpuZVSgTdcSjlb/13vpi8WEULaHfltAeKLNcUOeexn7bEasMJzqTUCng2G22a6MXlZ/zfrxAm4O/YWJSHIHsp4isfO/Xo/Vh9bydvaYbRZ1iXLiuGbX2HtMRWMIL3zC4OMOFO1OXglyi6lul92r6KjFHe8QetyAPboI8O1HzcBHDHcEtIHMJALM9Vhvc5i/098nCzu52yXit0782PlQv6b+KjOIp8PPdvaYYyonJjSezcdq9fdhUx/UBmhNgOhtTfXq6EPJySld/ULYZ+0LX2qzKC9jj7UPit+ZY2F8lhjrnHwo6pHhR4ZDN5tl+BH26H/excRW7Dl0DAWFpr9DucYGURnmVf+IPRNxsazbZn5NVY91A6ZeRu8L5tf/b+fcm6I4oij+fbZYkDKlpeUrKKWRilEEtoQtdVGUUrKgoFCiERIIkICJggFURJZnFFIQHjGJiRLhc51U9+wMs8PszJUZKV3PH9Sy0Dt7+95f95zp7nu3Mi7s35+rv38YYsJ1ZcJQx+/i+Ei0HC2z6xho8khVlbTxOLQlUcemqp1wrEzk5RegID+afmIuRt3oGlKPuhCvKE8PoBjqh7e4MmGbpJwTqMRmp5+jOw/gSKwZ3c/XMdYZt7YfVLvgYqISrfPr6KjOXPkoqB7GzPw9nFJnbrwOYNq2mJx2q/fl3avWIch3uY4XP5KY6u/ueWs92Rm+MlapJnsS1qRrt3mrfpbEVHIzMPuVuteUOYmrCb14r7VVKBYTHuNLZk9448Lwf/YHAzMO3nGX2aNvzD7zmKSNttnDh6bN5ms2fsoFHLrao1cmjFVhSbxMO7Td6QeAra5M2K/l9ruEeW2Hr5h4h5WJkMaFW39y7W8BxcRRJFPreHjzuOtEqQMb8W6jgXY9M2Hs29kdHlF78Puzn5mIVvTh2cosrhRlPknbryFpo/bzK/vWMN17yZpM7ddw27erdTsz8cTIbDH88BnOPXiLiR8u6BtzJC+BtqV1dNVsHLbUNz6X+hZ+9mgfeogJ9f0Sm3cdi6PiZJG1tK0/9+3fmBm8ht22ffGIT0xNX2WLVyQSw63f1jFws8Tyr3oaO9I8p89sfKXFRPaUzsneGm2j+swXDSPo/SZhe3oxViLM/X7VJluKqXkd014/NrQPPWKqrlPcsoCZyQ4Up5f+I3kn0DiZmZUSlp/9Yiq9Gai94an7V62VwEgkij3HYjhRvFGMTiomvHwosSfMcaHi4Td2VBtPm4XjVDKPSdr42aP+L+FHwqGbPcaZCeO8miReyh7zx39lwvteYF7H69WPefVZCaun1TaeLSss25mJsMaFV59y5X8BxYSqDfAfJkd7cS6usjsSKCvZb8GlA6vrB2Rvo4Een0WnM5ujynnozzs7QE0aZd2vMO3x1CppYwZWZQlMz6VQfz6ePqkcw+e7DJGiThQPqdPv6iRwVQ0utk1jbHkRjfZsjhOdGDKzOSrNbI4/cafSyOaIRIpQ+/gtJscHcfViAuXxq6jrGcbA1OaVCWWTlz3ahz5iQmLz7poRfRDybvIyTlfEUXGpA32z63jU6kj18ompEffs8VJxKLm9gKnFRXQ0J3UmS6J5GMNLaxhsLbVWQQpLVdEqlWVgFK261D6NsZU/cMuW7VJY9iMeL79ET0sSscr0ifTledSXbGQiSK4jYaPAJ6aq39Gjrehfeo3+zhs4E7+M2q45TCw9x5UjxoqUahOWn/1iKr0ZFKjiYMsr6G5OInYmgar6+xj4/Q26Lx+wxrJkgvbzocSeMMeF8rX68Ro7vjYLx6lkHpO08bNHyo+EQ23PzDy609kcF3U2xyvcTc+9snhFsfe4WSzOyOYY7W1yLR6ntg787hdmzLK9+jGvPidhdWflAJ6p82Eqk05nc4xg0HEAM6xxka0vufb3QGJCOSN6uA53R14ild73d+73+7WLPLt4AAADUElEQVTRQD9owsn6YavOxHeNG6l9psPVE6auM7HoXmcisiOB9vk19Na5l3JV15G0sb6vsAQXel5gZGFN51DPrBin4vV1zJoNYytILfyDJ2NudSZ24KCuIbFs1ZlocdSZyC+qQfMv83i6sKprebQnTyHR6y4mIh72aB/6iAm1RKhrCXjZnLcPpTeHde711PIaxmcX0dfVgGKXWgJ+cfeNV/5BlDb246epV5hYWsXY9BTaGquw13bAT23XHDrbaZTTTpfcvlF9zKrhYMai6HwXelIvdSxUye1rVYczVldE15HwE/GPqboZ7Iu1oXPUKAH++OkQkhWOmg0h+dkvppKbgeHDHTikffgXJhZfY3RiEneSmWNQMkH7jS+pPWGNC9FYFsRdYo9kHpO08fOhjpeAHwmHxrzRjLLrTzA492ZTjR9JvLzOFqhzBvay9sp2v3nDjFm2Vz/mtX98tjl0m8gefHl9CAMv/sX43Dy+b4ij1lFOW88bIYyLbH3Jtb+7iont7KQGOoQqbIXnBzGxlEK1rYyysx+SNs7P8P3GMmYu+4JsBI/zx+jDsGyWzGOSNmHZk8tjlX0LPlbfhw8/DDFhe6reSieVOj778yqm+r+20lmd15G0cX6G7z9MaMOOC9kIHueP0Ydh2mw85Wemhjo59WsTpj3O7+b74IzTh94+3CQmGu48xHb+tI+tYWb6VzTeHtjW793OPvK7tpcp+pv+3m4GJPOYpM12283ve79j5VMSIJvExKfUefbVW2nSP/QPGSADZIAMSBigmLClNkkcxjYcWGSADJABMkAGMhmgmKCYsNL/ODgyBwf9QX+QATJABmQMUExQTFBMkAEyQAbIABkIxADFBAEKBBBVu0y100/0ExkgA7nMAMUExQTFBBkgA2SADJCBQAxQTBCgQADlstJm3/gkSQbIABmQMUAxQTFBMUEGyAAZIANkIBADFBMEKBBAVO0y1U4/0U9kgAzkMgMUExQTFBNkgAyQATJABgIxQDFBgAIBlMtKm33jkyQZIANkQMYAxQTFBMUEGSADZIAMkIFADFBMEKBAAFG1y1Q7/UQ/kQEykMsMUExQTFBMkAEyQAbIABkIxADFBAEKBFAuK232jU+SZIAMkAEZA/8DYvxb9KAblWwAAAAASUVORK5CYII=;" vertex="1" parent="1">
          <mxGeometry x="870" y="310" width="360" height="529.5" as="geometry" />
        </mxCell>
        <mxCell id="Ctpr0SHcvEs6AHWeeGjL-43" value="获取是否支持购物卡集合 将erp-ms-app服务的batchByShoppeCode调整为shop-ms-app的batchByShoppeCode" style="rounded=0;whiteSpace=wrap;html=1;shadow=1;labelBackgroundColor=none;fillColor=#CCFFFF;align=left;" vertex="1" parent="1">
          <mxGeometry x="260" y="160" width="540" height="60" as="geometry" />
        </mxCell>
      </root>
    </mxGraphModel>
  </diagram>
</mxfile>
